<svg width="58.000000" height="66.000000" viewBox="0 0 58 66" fill="none" xmlns="http://www.w3.org/2000/svg" xmlns:xlink="http://www.w3.org/1999/xlink">
	<desc>
			Created with Pixso.
	</desc>
	<defs>
		<filter id="filter_35_433_dd" x="0.000000" y="0.000000" width="58.000000" height="66.000000" filterUnits="userSpaceOnUse" color-interpolation-filters="sRGB">
			<feFlood flood-opacity="0" result="BackgroundImageFix"/>
			<feColorMatrix in="SourceAlpha" type="matrix" values="0 0 0 0 0 0 0 0 0 0 0 0 0 0 0 0 0 0 127 0" result="hardAlpha"/>
			<feOffset dx="0" dy="4"/>
			<feGaussianBlur stdDeviation="1.33333"/>
			<feComposite in2="hardAlpha" operator="out" k2="-1" k3="1"/>
			<feColorMatrix type="matrix" values="0 0 0 0 0 0 0 0 0 0 0 0 0 0 0 0 0 0 0.25 0"/>
			<feBlend mode="normal" in2="BackgroundImageFix" result="effect_dropShadow_1"/>
			<feBlend mode="normal" in="SourceGraphic" in2="effect_dropShadow_1" result="shape"/>
		</filter>
	</defs>
	<g filter="url(#filter_35_433_dd)">
		<path id="Vector" d="M27.5 57.57C26.69 57.11 24.38 55.31 22.54 53.71C19.49 51.06 16.82 48.14 14.43 44.85C9.28 37.76 6.1 29.52 4.7 19.67C4.04 14.97 3.78 8.41 4.2 6.95C4.47 6.02 5.08 5.16 5.85 4.61C6.68 4.02 9.33 2.96 11.72 2.27C16.76 0.8 22.33 0.1 28.95 0.1C37.38 0.09 44.28 1.23 50.1 3.58C52.18 4.42 52.95 5.03 53.55 6.29L53.94 7.11L53.93 10.73C53.91 20.79 51.66 30.56 47.57 38.45C46.53 40.46 44.07 44.35 42.85 45.9C40.59 48.79 37.98 51.55 35.39 53.81C33.65 55.33 31.06 57.31 30.34 57.68C29.46 58.14 28.42 58.09 27.5 57.57ZM29.25 57.31C29.11 57.27 28.89 57.27 28.76 57.31C28.62 57.35 28.73 57.38 29 57.38C29.27 57.38 29.38 57.35 29.25 57.31ZM23.66 53.74C23.66 53.71 23.55 53.59 23.42 53.48C23.2 53.3 23.19 53.31 23.37 53.54C23.55 53.78 23.66 53.86 23.66 53.74ZM22.82 53.02C22.82 53 22.65 52.82 22.44 52.62L22.05 52.27L22.39 52.67C22.71 53.04 22.82 53.13 22.82 53.02ZM20.85 51.11C20.36 50.6 19.92 50.17 19.88 50.17C19.84 50.17 20.22 50.6 20.71 51.11C21.21 51.63 21.65 52.06 21.69 52.06C21.73 52.06 21.35 51.63 20.85 51.11ZM18.75 48.94C18.25 48.43 17.81 48 17.77 48C17.73 48 18.11 48.43 18.61 48.94C19.1 49.46 19.54 49.88 19.58 49.88C19.62 49.88 19.25 49.46 18.75 48.94L18.75 48.94ZM17.48 47.52C17.48 47.5 17.31 47.32 17.1 47.12L16.71 46.77L17.05 47.17C17.37 47.54 17.48 47.63 17.48 47.52ZM16.64 46.51C16.64 46.48 16.5 46.33 16.32 46.18L16.01 45.9L16.28 46.23C16.53 46.54 16.64 46.62 16.64 46.51ZM16.08 45.78C16.08 45.75 15.94 45.61 15.76 45.46L15.45 45.18L15.71 45.51C15.96 45.81 16.08 45.9 16.08 45.78L16.08 45.78ZM15.52 45.05C15.52 45.02 15.41 44.91 15.27 44.8C15.05 44.62 15.04 44.62 15.22 44.85C15.4 45.1 15.52 45.17 15.52 45.05ZM15.09 44.47C15.09 44.44 14.98 44.33 14.85 44.22C14.63 44.04 14.62 44.05 14.8 44.28C14.98 44.52 15.09 44.59 15.09 44.47ZM14.67 43.89C14.67 43.87 14.56 43.75 14.43 43.64C14.2 43.46 14.2 43.47 14.37 43.7C14.56 43.94 14.67 44.01 14.67 43.89ZM12.71 40.91C12.62 40.75 12.52 40.62 12.49 40.62C12.45 40.62 12.48 40.75 12.57 40.91C12.65 41.07 12.75 41.2 12.79 41.2C12.82 41.2 12.79 41.07 12.71 40.91L12.71 40.91ZM12.28 40.19C12.2 40.03 12.1 39.9 12.06 39.9C12.03 39.9 12.06 40.03 12.14 40.19C12.23 40.35 12.33 40.48 12.36 40.48C12.4 40.48 12.37 40.35 12.28 40.19ZM11.86 39.46C11.78 39.3 11.68 39.17 11.64 39.17C11.6 39.17 11.64 39.3 11.72 39.46C11.81 39.62 11.9 39.75 11.94 39.75C11.98 39.75 11.95 39.62 11.86 39.46ZM10.57 36.94C10.17 36.1 9.82 35.44 9.79 35.47C9.73 35.54 11.14 38.45 11.23 38.45C11.27 38.45 10.97 37.77 10.57 36.94L10.57 36.94ZM9.35 34.3C9.19 34.01 9.15 34.1 9.28 34.46C9.33 34.59 9.4 34.67 9.43 34.63C9.47 34.59 9.43 34.44 9.35 34.3L9.35 34.3ZM22.85 9.26C22.75 9.22 22.63 9.22 22.58 9.27C22.53 9.32 22.62 9.35 22.76 9.35C22.93 9.34 22.96 9.3 22.85 9.26ZM5.17 6.53C5.22 6.4 5.2 6.34 5.12 6.39C5.04 6.44 4.98 6.54 4.98 6.62C4.98 6.82 5.08 6.78 5.17 6.53L5.17 6.53ZM53.03 6.62C53.03 6.55 52.9 6.34 52.74 6.15L52.45 5.81L52.7 6.28C52.96 6.77 53.03 6.84 53.03 6.62ZM19.76 4.48C19.66 4.44 19.53 4.44 19.49 4.49C19.44 4.54 19.52 4.58 19.67 4.57C19.84 4.56 19.87 4.53 19.76 4.48ZM25.84 4.29C25.98 4.13 26.07 4 26.03 4C25.99 4 25.84 4.13 25.7 4.29C25.56 4.45 25.48 4.58 25.52 4.58C25.56 4.58 25.7 4.45 25.84 4.29ZM22.29 4.19C22.18 4.15 22.06 4.16 22.02 4.2C21.97 4.25 22.05 4.29 22.2 4.28C22.37 4.27 22.4 4.24 22.29 4.19ZM39.15 1.44C39.04 1.4 38.92 1.41 38.88 1.45C38.83 1.5 38.91 1.54 39.06 1.53C39.22 1.52 39.26 1.49 39.15 1.44ZM38.02 1.3C37.92 1.26 37.8 1.26 37.75 1.31C37.71 1.36 37.79 1.39 37.94 1.38C38.1 1.38 38.13 1.34 38.02 1.3ZM36.91 1.16C36.81 1.12 36.65 1.12 36.56 1.16C36.46 1.2 36.54 1.23 36.73 1.23C36.92 1.23 37 1.2 36.91 1.16ZM22.99 1.01C22.89 0.97 22.77 0.97 22.72 1.02C22.67 1.07 22.76 1.1 22.9 1.1C23.07 1.09 23.1 1.05 22.99 1.01ZM35.29 1.01C35.15 0.97 34.96 0.97 34.87 1.01C34.77 1.05 34.88 1.08 35.12 1.08C35.35 1.08 35.42 1.04 35.29 1.01ZM25.66 0.86C25.41 0.82 25.03 0.83 24.82 0.86C24.61 0.89 24.82 0.92 25.28 0.92C25.74 0.92 25.92 0.89 25.66 0.86ZM33.11 0.86C32.86 0.82 32.48 0.83 32.27 0.86C32.06 0.89 32.26 0.92 32.73 0.92C33.19 0.92 33.36 0.89 33.11 0.86Z" fill="#F9CE5C" fill-opacity="1.000000" fill-rule="nonzero"/>
		<path id="Vector" d="M27.68 57.63C25.17 56.27 19.29 50.88 16.23 47.13C8.46 37.6 4.57 26.08 4.05 10.97C3.92 7.22 4.16 6.25 5.54 4.97C7.3 3.34 14.25 1.31 20.43 0.61C31.91 -0.67 42.94 0.54 50.81 3.93C53.01 4.88 53.87 6.15 53.98 8.62C54.06 10.25 53.81 15.11 53.51 17.73C51.71 33.82 45.17 46 33.23 55.54C30.72 57.54 30.13 57.89 29.17 57.95C28.52 57.99 28.24 57.93 27.68 57.63L27.68 57.63ZM30.93 56.55C35.47 53.37 40.15 48.67 43.54 43.88C48.03 37.54 50.98 30.03 52.46 21.23C53.32 16.06 53.69 8.62 53.17 6.82C52.86 5.77 51.91 5.01 49.85 4.17C43.85 1.74 35.63 0.49 27.25 0.72C19.62 0.94 13.47 2.05 8.19 4.17C6.68 4.77 6.3 4.99 5.64 5.63C4.88 6.37 4.86 6.41 4.69 7.55C4.49 8.9 4.68 14.09 5.05 17.46C6.87 33.85 13.53 46.07 25.85 55.64C27.78 57.14 28.28 57.41 29.02 57.41C29.6 57.41 29.84 57.3 30.93 56.55ZM27.6 56.66C26.94 56.25 25.1 54.81 23.66 53.59C16.02 47.08 10.75 39.15 7.72 29.61C6.56 25.94 5.68 21.62 5.19 17.16C4.96 15.01 4.68 8.82 4.79 8.13C4.96 7.03 4.96 7.02 5.28 7.2C5.72 7.44 5.92 7.15 5.63 6.69C5.45 6.4 5.43 6.25 5.54 6.02C6.31 4.54 13.35 2.28 19.66 1.48C22.71 1.1 25.1 0.96 29.02 0.96C36.58 0.96 42.29 1.78 47.76 3.63C50.23 4.47 51.72 5.15 52.12 5.6C52.37 5.88 52.37 5.91 52.13 6.32C51.83 6.86 51.93 7.04 52.54 7.04C53.05 7.04 53.04 7.02 53.23 8.18C53.34 8.89 53.06 15.19 52.81 17.46C51.66 27.92 48.43 36.84 43.13 44.19C40.01 48.53 35.22 53.31 30.99 56.32L29.98 57.03L29.75 56.7C29.56 56.41 29.44 56.38 28.95 56.44C28.64 56.49 28.31 56.62 28.23 56.74C28.09 56.93 28.01 56.93 27.6 56.66L27.6 56.66ZM24.57 38.66C24.81 38.4 24.86 38.02 24.65 38.02C24.61 38.02 24.58 38.03 24.55 38.06C24.52 38.08 24.51 38.12 24.51 38.16C24.51 38.24 24.35 38.34 24.16 38.39C23.8 38.48 23.72 38.61 23.9 38.79C24.06 38.95 24.34 38.9 24.57 38.66ZM20.85 36.78C20.85 36.74 20.79 36.71 20.71 36.71C20.64 36.71 20.57 36.78 20.57 36.87C20.57 36.95 20.64 36.98 20.71 36.93C20.79 36.88 20.85 36.81 20.85 36.78ZM30.67 35.55C30.44 35.15 30.22 34.83 30.19 34.83C30.17 34.83 30.31 35.18 30.52 35.61C30.73 36.03 30.95 36.35 31 36.32C31.06 36.29 30.91 35.94 30.67 35.55ZM33.01 33.09C33.06 33.01 32.96 32.97 32.78 32.99C32.52 33.01 32.44 32.93 32.36 32.59C32.27 32.18 32.27 32.18 32.25 32.52C32.23 33.08 32.77 33.49 33.01 33.09L33.01 33.09ZM29.83 30.87C30.47 30.75 30.69 30.54 30.69 30.06C30.69 29.64 30.28 28.93 30.27 29.34C30.27 29.46 29.99 29.84 29.65 30.19C29.31 30.53 28.99 30.94 28.95 31.1C28.89 31.35 28.91 31.36 29.12 31.17C29.25 31.06 29.57 30.92 29.83 30.87L29.83 30.87ZM34.34 30.64C33.41 30.51 33.09 30.35 32.6 29.76C32 29.02 32.16 28.17 32.98 27.81L33.43 27.61L32.93 27.6C31.46 27.58 31.43 29.68 32.9 30.48C33.27 30.68 33.68 30.76 34.27 30.75L35.12 30.74L34.34 30.64ZM38.27 29.26C38.26 29.1 38.22 29.05 38.18 29.15C38.14 29.25 37.99 29.33 37.84 29.33C37.69 29.33 37.57 29.38 37.57 29.44C37.57 29.5 37.73 29.55 37.92 29.55C38.19 29.55 38.27 29.47 38.27 29.26ZM23.31 28.42C23.54 28.05 23.88 27.7 24.06 27.65C24.45 27.54 25.4 27.82 25.95 28.21C26.5 28.6 27.22 28.69 27.45 28.4C27.55 28.28 27.8 28.17 28 28.17C28.36 28.16 28.36 28.16 28.1 27.95C27.93 27.82 27.5 27.74 26.97 27.74C25.94 27.73 25.49 27.52 25.2 26.9L24.99 26.42L24.72 26.73C24.34 27.15 23.89 27.05 23.8 26.51L23.73 26.07L23.3 26.73C22.68 27.65 22.4 28.25 22.4 28.65C22.4 29.41 22.73 29.33 23.31 28.42L23.31 28.42ZM31.78 26.73C31.92 26.7 31.76 25.74 31.54 25.29C31.32 24.86 31.15 24.7 30.8 24.63C29.42 24.35 29.07 23.92 29.2 22.62C29.3 21.63 29.29 21.61 28.54 21.03C28.24 20.8 27.93 20.46 27.85 20.27C27.65 19.82 27.44 19.83 26.48 20.38C25.34 21.02 25.24 21.24 25.76 21.92C25.98 22.22 26.21 22.73 26.26 23.07C26.32 23.41 26.44 23.69 26.53 23.69C26.79 23.69 27.04 24.34 27.04 25.03C27.04 25.55 27.13 25.76 27.65 26.37L28.27 27.1L30.01 26.92C30.96 26.82 31.76 26.74 31.78 26.73ZM34.83 25.63C34.64 25.11 34.29 23.92 34.05 22.99C33.81 22.01 33.36 20.74 32.99 19.96C32.38 18.69 32.21 18.46 32.04 18.74C31.95 18.9 32.68 20.77 33.21 21.72C33.44 22.13 33.79 23.14 33.99 23.98C34.2 24.85 34.51 25.73 34.72 26.04C34.92 26.34 35.1 26.58 35.13 26.58C35.15 26.58 35.02 26.15 34.83 25.63L34.83 25.63ZM31.5 18.14C30.77 17.53 31.14 17.07 32.03 17.49C32.31 17.62 32.38 17.74 32.33 18.01C32.29 18.23 32.32 18.3 32.41 18.21C32.66 17.95 32.45 17.54 31.94 17.28C31.02 16.82 30.54 17.36 31.27 18.06C31.51 18.29 31.74 18.47 31.79 18.47C31.84 18.47 31.71 18.32 31.5 18.14ZM37.37 17.25C37.48 16.97 37.57 16.6 37.57 16.42C37.57 15.98 37.1 15.21 36.7 14.99L36.38 14.82L36.68 15.16C37.33 15.92 37.45 16.58 37.08 17.33C36.95 17.59 36.92 17.75 37.02 17.75C37.1 17.75 37.26 17.53 37.37 17.25ZM27.06 13.84C26.44 13.45 26.48 12.91 27.18 12.43C27.57 12.15 27.82 12.1 28.41 12.13C28.91 12.16 29.14 12.12 29.14 12.01C29.14 11.91 29.44 11.74 29.81 11.62L30.48 11.4L29.64 11.47C28.34 11.59 27.43 11.91 26.83 12.44C26.37 12.84 26.3 12.98 26.38 13.31C26.44 13.52 26.65 13.79 26.86 13.91C27.44 14.23 27.6 14.18 27.06 13.84ZM8.61 10.26C8.56 7.42 8.57 7.4 8.88 7.26C9.35 7.05 9.26 6.89 8.77 7.06L8.35 7.21L8.35 10.17C8.35 12.21 8.4 13.12 8.5 13.12C8.61 13.12 8.64 12.27 8.61 10.26L8.61 10.26ZM31.79 12.99C31.94 12.9 31.92 12.86 31.72 12.8C31.57 12.76 31.37 12.82 31.28 12.93C31.13 13.08 31.15 13.12 31.35 13.12C31.49 13.12 31.69 13.06 31.79 12.99ZM49.2 7.2C49.42 7.28 49.52 7.29 49.45 7.21C49.37 7.14 49.16 7.03 48.99 6.98L48.67 6.88L48.71 9.89L48.74 12.9L48.78 9.98L48.82 7.05L49.2 7.2ZM11.09 11.49C11.18 11.4 11.11 11.39 10.88 11.46C10.33 11.62 9.62 11.94 9.62 12.02C9.62 12.12 10.93 11.66 11.09 11.49L11.09 11.49ZM12.44 8.72C13.04 6.05 13.06 5.98 13.48 5.8L13.9 5.6L13.53 5.6C13.33 5.6 13.1 5.68 13.02 5.77C12.88 5.95 11.57 11.51 11.59 11.86C11.61 12.23 11.85 11.36 12.44 8.72ZM46.58 11.29C46.42 10.99 46.38 11.09 46.51 11.45C46.56 11.58 46.63 11.66 46.67 11.62C46.7 11.58 46.66 11.43 46.58 11.29ZM44.67 5.77C44.86 5.81 44.98 5.79 44.94 5.72C44.9 5.65 44.71 5.59 44.52 5.59L44.18 5.59L44.21 8.52L44.24 11.46L44.28 8.58L44.32 5.71L44.67 5.77ZM14.31 10.6C14.26 10.31 14.19 10.1 14.15 10.14C14.11 10.18 14.12 10.45 14.17 10.74C14.23 11.03 14.3 11.24 14.34 11.2C14.38 11.16 14.37 10.89 14.31 10.6ZM16.12 8.03C16.15 5.25 16.15 5.23 16.46 5.19C16.64 5.16 16.78 5.07 16.78 4.99C16.78 4.9 16.64 4.87 16.46 4.92C16.29 4.97 16.1 5.01 16.04 5.01C15.98 5.01 15.94 6.36 15.94 8.01C15.94 9.65 15.97 10.96 16.02 10.92C16.06 10.87 16.11 9.57 16.12 8.03ZM42.74 5.26C43.09 5.21 43.09 5.2 42.67 5.18L42.21 5.16L42.24 8.09L42.27 11.02L42.32 8.17L42.36 5.32L42.74 5.26ZM17.64 9.29C17.44 8.7 17.26 8.24 17.23 8.27C17.2 8.3 17.32 8.84 17.5 9.48C17.68 10.12 17.86 10.58 17.91 10.5C17.96 10.43 17.83 9.88 17.64 9.29L17.64 9.29ZM40.35 8.67C40.32 8.29 40.29 8.6 40.29 9.36C40.29 10.11 40.32 10.42 40.35 10.04C40.38 9.67 40.38 9.05 40.35 8.67ZM19.31 8.83C19.31 7.98 19.29 7.31 19.26 7.34C19.14 7.48 19.06 10.37 19.18 10.37C19.25 10.37 19.31 9.68 19.31 8.83ZM21.28 7.26L21.28 4.45L21.91 4.36C22.25 4.3 22.76 4.29 23.03 4.32C23.3 4.35 23.47 4.32 23.41 4.26C23.34 4.19 22.79 4.15 22.18 4.18L21.07 4.22L21.03 7.23C21 9.25 21.04 10.22 21.13 10.16C21.22 10.1 21.28 9.01 21.28 7.26ZM38.24 4.57L38.63 4.55L38.28 4.44C38.08 4.39 37.88 4.36 37.82 4.39C37.76 4.43 37.73 5.77 37.75 7.38L37.78 10.3L37.82 7.44L37.86 4.58L38.24 4.57ZM47.24 6.51C47.61 6.59 47.61 6.59 47.2 6.4L46.78 6.2L46.71 7.96C46.67 8.93 46.67 9.82 46.71 9.94C46.74 10.06 46.79 9.32 46.82 8.29L46.85 6.43L47.24 6.51ZM25.72 9.35C25.29 8.82 25.14 8.17 25.16 6.79C25.17 5.61 25.5 4.55 25.96 4.22C26.12 4.1 26.51 4 26.82 4C27.29 3.99 27.34 3.97 27.13 3.84C26.78 3.63 26.2 3.8 25.73 4.26C24.74 5.23 24.64 8.4 25.57 9.43C26.03 9.94 26.15 9.88 25.72 9.35ZM30.68 4.02C31.29 4.05 31.71 4.03 31.62 3.97C31.54 3.91 31 3.86 30.44 3.86L29.42 3.86L29.46 6.86L29.49 9.86L29.53 6.92L29.57 3.97L30.68 4.02ZM31.6 8.92C31.47 8.51 31.33 8.21 31.29 8.25C31.25 8.29 31.33 8.66 31.46 9.07C31.59 9.48 31.73 9.78 31.77 9.74C31.81 9.7 31.73 9.33 31.6 8.92L31.6 8.92ZM23.25 9.13C23.59 8.82 23.62 7.94 23.31 7.54C23.09 7.27 23.09 7.27 23.24 7.57C23.6 8.36 23.25 9.21 22.55 9.21C22.35 9.22 22.09 9.29 21.98 9.37C21.82 9.49 21.92 9.51 22.38 9.45C22.71 9.41 23.11 9.27 23.25 9.13L23.25 9.13ZM33.83 9.03C33.51 8.41 33.41 6.38 33.64 5.52C33.88 4.63 34.49 4.1 35.2 4.17C35.49 4.2 35.69 4.17 35.66 4.11C35.62 4.05 35.34 4 35.03 4C34.33 4 33.74 4.54 33.51 5.39C33.26 6.33 33.32 8.18 33.64 8.89C33.79 9.22 33.94 9.5 33.99 9.5C34.03 9.5 33.96 9.29 33.83 9.03ZM13.81 9.23C13.96 9.13 13.95 8.98 13.77 8.4L13.55 7.69L13.63 8.35C13.71 8.94 13.68 9.03 13.39 9.17C13.09 9.32 13.08 9.34 13.34 9.35C13.49 9.35 13.7 9.3 13.81 9.23ZM35.88 9.08C35.96 8.92 36.03 8.71 36.03 8.61C36.03 8.5 35.94 8.58 35.84 8.78C35.7 9.07 35.56 9.14 35.15 9.12C34.86 9.12 34.66 9.16 34.71 9.23C34.86 9.48 35.73 9.37 35.88 9.08ZM27.49 8.63C27.67 8.27 27.74 7.78 27.74 6.9C27.74 5.35 27.47 4.67 26.81 4.61C26.56 4.58 26.31 4.65 26.21 4.78C26.05 4.97 26.09 4.98 26.48 4.83C26.88 4.67 26.95 4.69 27.18 4.98C27.69 5.63 27.73 7.96 27.25 8.73C27.06 9.01 26.92 9.08 26.61 9.04C26.39 9 26.24 9.03 26.28 9.1C26.33 9.17 26.56 9.21 26.8 9.18C27.15 9.15 27.3 9.03 27.49 8.63ZM19.26 4.72C19.33 4.66 19.51 4.58 19.66 4.54C19.85 4.49 19.8 4.46 19.5 4.45L19.06 4.44L18.62 5.99C18.38 6.85 18.19 7.65 18.19 7.77C18.2 7.88 18.41 7.27 18.67 6.41C18.93 5.55 19.2 4.79 19.26 4.72ZM36.07 7.15L36.8 7.09L35.99 7.07C35.2 7.04 35.19 7.05 35.2 7.44C35.22 7.77 35.23 7.78 35.28 7.52C35.33 7.25 35.45 7.19 36.07 7.15ZM24.02 7.2C23.97 7.11 23.86 7.04 23.78 7.04C23.69 7.04 23.7 7.12 23.81 7.26C24 7.5 24.17 7.45 24.02 7.2ZM40.38 6.01L40.38 4.84L40.77 4.93C41.06 5 41.1 4.99 40.95 4.88C40.83 4.8 40.62 4.73 40.49 4.73C40.28 4.73 40.24 4.88 40.24 5.88L40.24 7.04L39.51 6.99C38.93 6.94 38.88 6.95 39.26 7.04C40.42 7.29 40.38 7.32 40.38 6.01L40.38 6.01ZM23.11 6.48C23.51 6.15 23.54 5.39 23.17 5.04C22.93 4.82 22.92 4.82 23.08 5.04C23.31 5.36 23.23 6.18 22.96 6.33C22.85 6.39 22.53 6.5 22.26 6.58L21.77 6.72L22.28 6.74C22.58 6.75 22.92 6.64 23.11 6.48ZM31.67 6.32C32.01 5.97 32.04 5.27 31.73 4.95C31.41 4.62 31.34 4.67 31.59 5.05C32.08 5.77 31.78 6.31 30.78 6.47L30.2 6.57L30.79 6.59C31.22 6.6 31.47 6.52 31.67 6.32ZM35.83 5.34C35.79 5.3 35.75 5.38 35.76 5.53C35.77 5.7 35.8 5.74 35.84 5.62C35.88 5.52 35.88 5.39 35.83 5.34L35.83 5.34Z" fill="#F9CE5C" fill-opacity="1.000000" fill-rule="nonzero"/>
		<path id="Vector" d="M27.81 57.66C26.12 56.83 21.7 53.06 18.75 49.94C10.7 41.42 6.21 31.35 4.56 18.11C4.34 16.35 4 11.06 4 9.41C3.99 6.72 4.82 5.09 6.64 4.2C8.58 3.25 12.47 2.02 15.45 1.41C20.65 0.34 27.92 -0.13 33.43 0.24C39.6 0.66 44.24 1.53 48.71 3.13C51.91 4.26 52.86 4.92 53.57 6.46C53.94 7.25 53.94 7.28 53.92 10.44C53.81 23.42 50.48 34.88 44.15 43.99C41.18 48.27 36.97 52.64 32.43 56.15C30.01 58.03 29.14 58.31 27.81 57.66L27.81 57.66ZM30.86 56.64C34.18 54.36 39.39 49.4 41.99 46.05C44.77 42.45 47.74 37.27 49.23 33.38C51.51 27.41 52.79 21.3 53.31 13.92C53.48 11.45 53.49 8.03 53.32 7.3C53.24 6.93 53.25 6.75 53.36 6.71C53.56 6.64 53.09 5.88 52.84 5.88C52.74 5.88 52.5 5.71 52.32 5.51C50.99 4.05 44.19 2 38 1.19C33.49 0.6 25.91 0.53 21.42 1.03C14.5 1.8 7.12 3.92 5.62 5.57C5.4 5.81 5.17 5.99 5.11 5.95C4.39 5.49 4.4 12.37 5.13 18.33C6.74 31.42 11.36 41.55 19.58 50.04C22.49 53.03 26.01 56.04 27.91 57.14C28.93 57.73 29.4 57.65 30.86 56.64ZM28.21 55.91C27.89 55.72 26.98 55.06 26.19 54.44C25.39 53.82 24.66 53.31 24.56 53.31C24.45 53.31 24.16 53.12 23.91 52.89L23.45 52.47L23.98 52.86C24.69 53.38 24.65 53.23 23.92 52.63C23.6 52.36 23.38 52.22 23.44 52.32C23.67 52.71 23.26 52.45 22.75 51.88C22.44 51.54 22.35 51.39 22.54 51.55C22.73 51.71 21.85 50.73 20.57 49.38C18.32 46.99 16.16 44.37 14.75 42.28C13.94 41.1 13.73 40.84 13.96 41.34L14.13 41.71L13.84 41.34C13.68 41.14 13.58 40.9 13.62 40.79C13.66 40.69 13.63 40.64 13.55 40.69C13.41 40.78 12.95 39.98 13.07 39.86C13.11 39.82 12.83 39.2 12.45 38.48C11.44 36.56 10.66 34.87 9.76 32.62C9.32 31.53 8.92 30.67 8.88 30.72C8.83 30.77 8.82 30.65 8.86 30.47C8.91 30.24 8.89 30.19 8.81 30.31C8.63 30.56 8.16 29.15 8.28 28.72C8.35 28.45 8.34 28.43 8.21 28.61C8.09 28.78 8.07 28.71 8.14 28.32C8.21 27.92 8.19 27.86 8.06 28.03C7.93 28.21 7.92 28.21 7.99 27.98C8.03 27.84 7.91 27.09 7.73 26.32C6.81 22.58 5.86 15.94 5.81 12.98C5.81 12.52 5.77 12.41 5.7 12.61C5.6 12.87 5.58 12.86 5.5 12.53C5.45 12.34 5.4 11.84 5.4 11.42C5.4 10.27 5.12 10.42 4.93 11.67C4.9 11.87 4.87 11.06 4.86 9.86C4.85 8.67 4.89 7.63 4.95 7.55C5 7.47 5.24 7.4 5.47 7.4C5.97 7.4 6.08 7.09 5.78 6.47C5.58 6.06 5.59 6.02 5.94 5.65C6.3 5.27 7.62 4.57 8.35 4.38C8.69 4.28 8.69 4.29 8.32 4.51C8.1 4.63 7.93 4.8 7.93 4.87C7.93 5.05 7.93 5.05 8.63 4.8C9.34 4.54 9.52 4.52 9.4 4.74C9.33 4.84 9.39 4.87 9.56 4.81C12.59 3.83 15.18 3.18 17.9 2.71C19.2 2.48 20.1 2.27 19.94 2.22C19.79 2.17 19.98 2.16 20.36 2.2C20.9 2.26 21.02 2.24 20.85 2.11C20.69 1.99 20.83 1.97 21.42 2.02C21.84 2.06 23.55 2.04 25.21 1.97C30.81 1.74 33.15 1.69 32.97 1.8C32.88 1.87 33.74 2 34.89 2.09C37.43 2.31 41.31 2.88 43.41 3.35C44.27 3.54 45.13 3.66 45.31 3.62C45.59 3.56 45.61 3.57 45.44 3.71C45.27 3.85 45.28 3.86 45.54 3.79C45.9 3.68 46.59 3.84 46.49 4C46.46 4.07 46.56 4.08 46.73 4.04C46.95 3.98 47 4.01 46.92 4.14C46.84 4.27 46.89 4.29 47.13 4.22C47.33 4.15 47.41 4.17 47.35 4.26C47.3 4.35 47.58 4.52 48 4.66C49.41 5.14 50.99 5.9 51.39 6.29C52.22 7.1 52.26 7.27 52.23 10.48C52.2 12.97 51.93 17.39 51.69 19.2C51.62 19.77 51.66 19.67 52.07 18.33C52.23 17.81 52.41 17.32 52.48 17.23C52.55 17.15 52.66 16.72 52.74 16.29C52.87 15.55 52.87 15.56 52.8 16.59C52.31 23.82 49.88 32.42 46.62 38.5C43.84 43.66 39.83 48.78 35.89 52.19L34.98 52.98L35.61 52.26C35.97 51.87 36.36 51.31 36.48 51.02C36.61 50.73 36.92 50.24 37.17 49.94L37.63 49.38L37.15 49.82C36.88 50.06 36.25 50.64 35.75 51.11C34.65 52.14 31.8 54.49 30.52 55.43C29.36 56.29 28.97 56.37 28.21 55.91ZM24.65 38.74C25.24 38.12 24.89 37.69 24.19 38.19C23.94 38.37 23.71 38.54 23.68 38.55C23.57 38.62 23.99 39.03 24.17 39.03C24.28 39.03 24.49 38.9 24.65 38.74ZM20.94 36.56C20.95 36.33 20.92 36.13 20.86 36.13C20.67 36.13 20.4 36.84 20.49 37.09C20.62 37.45 20.91 37.11 20.94 36.56ZM31.24 36.48C31.49 36.34 31.52 36.28 31.36 36.18C31.25 36.12 31.03 35.83 30.87 35.55C30.5 34.93 29.98 34.35 29.88 34.45C29.84 34.5 30.02 34.86 30.27 35.26C30.65 35.87 30.71 36.1 30.65 36.56C30.57 37.19 30.71 37.51 30.84 36.98C30.88 36.79 31.06 36.57 31.24 36.48L31.24 36.48ZM38.7 36.24C38.69 36.14 38.64 35.97 38.57 35.86C38.42 35.61 38.22 35.9 38.33 36.21C38.43 36.47 38.7 36.49 38.7 36.24ZM33.08 33.08C33.08 33.02 32.95 32.89 32.8 32.8C32.64 32.72 32.52 32.55 32.52 32.44C32.52 32.32 32.45 32.23 32.38 32.23C32.13 32.23 32.22 33.07 32.47 33.22C32.73 33.36 33.08 33.29 33.08 33.08ZM22.02 31.07L22.09 30.27L21.88 30.78C21.76 31.06 21.64 31.61 21.61 32.01C21.56 32.72 21.56 32.73 21.75 32.3C21.85 32.06 21.98 31.51 22.02 31.07ZM29.4 31.99C29.43 31.74 29.54 31.7 30.12 31.71C30.91 31.72 31.32 31.42 31.47 30.75C31.54 30.42 31.49 30.24 31.26 30C31.1 29.82 30.72 29.17 30.42 28.55C29.81 27.28 29.83 27.22 30.98 27.34C31.36 27.38 31.67 27.36 31.67 27.31C31.67 27.12 32.39 26.87 32.94 26.87C33.35 26.87 33.55 26.95 33.67 27.16C33.77 27.32 33.94 27.45 34.06 27.44C34.23 27.44 34.22 27.41 34.03 27.29C33.59 27.03 33.77 26.85 34.22 27.1C34.56 27.28 34.62 27.36 34.47 27.46C34.33 27.56 34.37 27.59 34.62 27.59C34.97 27.59 34.97 27.58 34.52 27.16C34.17 26.83 33.92 26.73 33.49 26.73C33.18 26.73 32.8 26.66 32.65 26.58C32.31 26.39 32.27 25.93 32.6 26.06C32.72 26.11 32.99 26.18 33.2 26.23L33.57 26.31L33.22 25.99C33.03 25.82 32.69 25.61 32.48 25.53C32.02 25.37 31.98 25.02 32.4 24.86C32.69 24.75 32.68 24.74 32.3 24.66C32.03 24.6 31.8 24.41 31.64 24.12C31.42 23.72 31.34 23.67 30.97 23.76C30.49 23.87 29.85 23.53 29.85 23.18C29.85 23.06 29.98 22.82 30.14 22.66L30.44 22.35L30.17 21.46C29.91 20.61 29.86 20.56 29.12 20.19C27.96 19.62 27.92 19.14 28.97 18.41C29.6 17.96 30.1 17.95 30.85 18.34C31.45 18.66 31.81 19.29 31.81 20.04C31.81 20.32 32.07 20.82 32.58 21.53C33.37 22.63 33.7 23.48 33.62 24.2C33.58 24.55 33.49 24.64 33.15 24.69C32.78 24.75 32.8 24.77 33.36 24.84C33.89 24.9 34.03 24.99 34.21 25.36C34.5 25.96 35.18 26.84 35.18 26.62C35.18 26.53 35.05 26.1 34.89 25.68C34.73 25.26 34.38 24.07 34.12 23.03C33.84 21.95 33.38 20.64 33.04 19.93C32.71 19.26 32.42 18.66 32.4 18.59C32.37 18.53 32.48 18.48 32.64 18.48C33.11 18.48 33.9 19.31 34.5 20.44C35.09 21.55 35.56 22 36.07 21.92C36.34 21.88 36.38 21.79 36.35 21.28C36.33 20.58 35.87 19.57 35.46 19.31C35.05 19.04 35.12 18.91 35.67 18.91C36.15 18.91 36.43 18.71 36.18 18.55C36.1 18.51 35.57 18.34 35 18.19C34.42 18.04 33.31 17.61 32.53 17.25C31.67 16.84 31.01 16.61 30.85 16.66C30.7 16.71 30.24 17.05 29.83 17.43C28.67 18.47 27.76 19.11 26.76 19.6C25.07 20.43 24.72 21.01 24.31 23.68C24.19 24.51 24.03 25.23 23.97 25.27C23.71 25.46 22.38 27.37 22.19 27.84C21.94 28.46 21.93 28.76 22.14 29.25C22.35 29.71 22.86 29.74 23.16 29.31C23.48 28.83 23.81 29.05 23.71 29.68C23.66 30.02 23.68 30.2 23.79 30.2C24.04 30.2 24.51 29.64 24.74 29.09C25 28.44 25.26 28.36 25.91 28.73C26.58 29.12 27.37 29.13 27.84 28.75C28.03 28.6 28.25 28.5 28.31 28.54C28.46 28.64 28.65 28.31 28.65 27.96C28.65 27.57 29.09 27.51 29.28 27.87C29.39 28.09 29.39 28.24 29.26 28.45C29.01 28.86 29.24 29 29.7 28.73L30.1 28.49L30.16 29.02C30.21 29.49 30.15 29.61 29.55 30.22C28.81 30.96 28.6 31.48 28.85 32.03C29.03 32.44 29.33 32.42 29.4 31.99ZM23.95 28.96C23.95 28.53 24.18 28.03 24.37 28.03C24.57 28.03 24.54 28.95 24.34 29.16C24.08 29.43 23.95 29.36 23.95 28.96L23.95 28.96ZM25.84 27.06C25.71 26.93 25.55 26.67 25.48 26.48C25.3 25.98 24.97 25.91 24.57 26.3C24.16 26.7 24 26.59 24.2 26.04C24.28 25.82 24.42 25.03 24.51 24.28C24.77 22.14 25.37 21.79 25.85 23.49C25.97 23.91 26.16 24.36 26.27 24.47C26.38 24.59 26.48 24.94 26.48 25.26C26.48 25.73 26.58 25.97 27.04 26.51C27.35 26.88 27.6 27.21 27.6 27.24C27.6 27.28 27.26 27.3 26.84 27.3C26.31 27.3 26 27.23 25.84 27.06L25.84 27.06ZM31.46 17.97C31.12 17.68 31.08 17.59 31.24 17.48C31.63 17.21 32.49 17.79 32.22 18.14C32.01 18.4 31.95 18.39 31.46 17.97ZM35.63 30.67C35.77 30.53 35.59 30.49 34.79 30.49C33.25 30.49 32.52 29.97 32.52 28.89C32.52 27.69 33.99 27.36 34.37 28.47C34.45 28.71 34.57 28.9 34.64 28.9C34.72 28.9 34.71 28.78 34.63 28.62C34.39 28.16 34.46 28.03 34.94 28.01C35.28 28 35.21 27.96 34.65 27.87C34.24 27.8 33.78 27.67 33.64 27.59C33.07 27.28 32.11 27.49 31.71 28.02C31.22 28.68 31.79 30.05 32.8 30.6C33.33 30.89 33.58 30.94 34.44 30.89C35 30.87 35.54 30.77 35.63 30.67ZM38.48 29.75C38.42 29.65 38.37 29.45 38.36 29.29C38.35 29.12 38.26 28.96 38.15 28.93C38.03 28.89 38 28.92 38.05 29.02C38.11 29.12 38.05 29.19 37.88 29.19C37.73 29.19 37.57 29.28 37.52 29.4C37.46 29.56 37.55 29.62 37.85 29.62C38.08 29.62 38.3 29.68 38.35 29.77C38.39 29.84 38.47 29.91 38.5 29.91C38.54 29.91 38.53 29.84 38.48 29.75ZM37.91 26.06C38.02 25.78 37.86 24.7 37.71 24.7C37.49 24.7 37.33 25.99 37.53 26.19C37.68 26.35 37.82 26.31 37.91 26.06ZM23.39 25.26C23.69 24.77 23.95 24.29 23.94 24.21C23.94 24.12 23.79 24.33 23.6 24.67C23.4 25.02 23.12 25.49 22.96 25.72C22.79 25.96 22.7 26.15 22.75 26.15C22.79 26.15 23.08 25.75 23.39 25.26ZM38.34 22.06C38.24 21.46 38.03 21.23 37.84 21.53C37.63 21.87 37.7 22.66 37.96 22.93C38.2 23.18 38.21 23.18 38.32 22.9C38.38 22.74 38.39 22.36 38.34 22.06ZM24.17 22.28C24.12 22.23 24.09 22.31 24.1 22.47C24.1 22.64 24.14 22.67 24.18 22.55C24.22 22.45 24.22 22.33 24.17 22.28ZM25.28 20.21C25.42 20.05 25.5 19.92 25.46 19.92C25.43 19.92 25.28 20.05 25.14 20.21C25 20.37 24.92 20.5 24.96 20.5C24.99 20.5 25.14 20.37 25.28 20.21L25.28 20.21ZM37.65 16.83C37.83 15.81 36.93 14.7 35.75 14.48C35.26 14.39 35.26 14.39 35.89 14.73C36.99 15.33 37.49 16.61 36.93 17.43C36.81 17.61 36.76 17.83 36.82 17.92C36.97 18.17 37.54 17.42 37.65 16.83L37.65 16.83ZM29.21 17.61C29.35 17.45 29.44 17.32 29.4 17.32C29.36 17.32 29.21 17.45 29.07 17.61C28.93 17.77 28.85 17.9 28.89 17.9C28.93 17.9 29.07 17.77 29.21 17.61ZM30.13 16.81C30.22 16.69 30.27 16.59 30.23 16.59C30.19 16.59 30.08 16.69 29.99 16.81C29.89 16.93 29.84 17.03 29.88 17.03C29.92 17.03 30.03 16.93 30.13 16.81ZM27.67 14.05C26.46 13.6 26.4 12.76 27.54 12.31C28.1 12.09 28.45 12.1 29.06 12.34C29.21 12.4 29.28 12.35 29.28 12.19C29.28 11.88 29.84 11.68 30.73 11.66C31.31 11.65 31.39 11.62 31.11 11.53C29.67 11.05 27.01 11.81 26.41 12.86L26.15 13.31L26.66 13.79C27.06 14.17 27.29 14.28 27.7 14.27L28.23 14.26L27.67 14.05L27.67 14.05ZM8.63 10.23C8.63 7.81 8.66 7.35 8.84 7.28C9.02 7.21 9.05 7.53 9.05 9.72C9.05 12.53 9 12.41 10.04 12.03C10.72 11.78 10.88 11.77 10.88 11.94C10.88 12.01 10.4 12.25 9.82 12.47C9.24 12.68 8.78 12.89 8.81 12.92C8.84 12.95 9.35 12.8 9.93 12.58C10.87 12.23 11 12.14 11.06 11.78C11.12 11.34 11.06 11.34 10.05 11.76C9.15 12.14 9.18 12.22 9.22 9.43C9.25 8.04 9.26 6.9 9.25 6.9C9.24 6.9 9.04 6.97 8.79 7.05L8.35 7.21L8.35 10.25C8.35 12.23 8.4 13.25 8.49 13.19C8.58 13.14 8.63 11.99 8.63 10.23ZM31.93 12.99C32.07 12.9 32.04 12.85 31.8 12.78C31.62 12.74 31.44 12.75 31.4 12.82C31.35 12.89 31.1 12.98 30.83 13.01C30.43 13.06 30.48 13.08 31.04 13.09C31.43 13.11 31.83 13.06 31.93 12.99ZM48.84 9.99L48.8 7.15L49.19 7.25C49.66 7.37 49.48 7.13 48.99 6.97L48.67 6.88L48.67 9.85C48.67 11.49 48.72 12.83 48.78 12.83C48.84 12.83 48.87 11.55 48.84 9.99L48.84 9.99ZM46.13 9.95C45.65 8.75 45.24 7.78 45.21 7.81C45.17 7.85 45.47 8.71 45.87 9.74C46.27 10.76 46.65 11.76 46.73 11.95C46.8 12.14 46.89 12.26 46.92 12.22C46.96 12.18 46.6 11.16 46.13 9.95ZM12.49 11.13C12.63 10.21 12.68 10.12 13.1 10.01C13.31 9.96 13.51 9.91 13.71 9.85C13.9 9.79 13.98 9.94 14.11 10.57L14.27 11.36L14.69 11.21C15.19 11.03 15.23 11.36 14.36 7.9L13.76 5.5L13.33 5.62C12.92 5.73 12.88 5.8 12.66 6.86C12.52 7.48 12.21 8.9 11.95 10.02L11.49 12.06L11.94 11.92C12.35 11.79 12.41 11.7 12.49 11.13L12.49 11.13ZM12.05 11.16C12.01 11.04 12 10.9 12.04 10.86C12.08 10.82 12.14 10.93 12.18 11.09C12.27 11.43 12.17 11.49 12.05 11.16ZM12.16 10.45C12.15 10.3 12.18 10.22 12.23 10.26C12.28 10.31 12.28 10.44 12.24 10.54C12.2 10.66 12.16 10.62 12.16 10.45ZM12.44 9.15C12.43 9 12.46 8.91 12.51 8.96C12.56 9.01 12.56 9.13 12.52 9.24C12.48 9.35 12.44 9.32 12.44 9.15L12.44 9.15ZM13 8.81C13.01 8.59 13.09 8.09 13.18 7.69L13.35 6.97L13.53 7.97C13.67 8.78 13.67 8.99 13.52 9.09C13.17 9.31 12.99 9.22 13 8.81ZM12.58 8.57C12.57 8.42 12.6 8.33 12.65 8.38C12.7 8.43 12.7 8.56 12.66 8.66C12.62 8.78 12.58 8.74 12.58 8.57ZM12.8 7.69C12.95 6.72 13.14 6.3 13.04 7.11C13 7.51 12.9 7.93 12.83 8.05C12.75 8.2 12.73 8.07 12.8 7.69ZM13.13 6.14C13.13 5.97 13.23 5.89 13.44 5.89C13.66 5.9 13.69 5.93 13.55 5.99C13.43 6.03 13.29 6.14 13.24 6.23C13.17 6.33 13.13 6.29 13.13 6.14ZM44.46 8.58L44.46 5.78L44.84 5.84C45.15 5.89 45.19 5.87 45.02 5.75C44.9 5.67 44.67 5.6 44.49 5.6L44.18 5.59L44.18 8.49C44.18 10.32 44.23 11.38 44.32 11.38C44.41 11.38 44.46 10.35 44.46 8.58L44.46 8.58ZM16.58 10.8C16.74 10.8 16.78 10.44 16.8 8.89C16.81 7.83 16.85 7.13 16.88 7.33C16.98 7.91 17.79 10.57 17.9 10.7C17.96 10.77 18.05 10.57 18.1 10.27C18.15 9.97 18.41 9.03 18.67 8.2L19.16 6.68L19.07 8.57L18.99 10.47L19.43 10.4L19.86 10.34L19.9 7.39L19.94 4.43L19.5 4.43C19.07 4.43 19.05 4.47 18.75 5.48C18.58 6.06 18.33 6.98 18.19 7.52L17.95 8.5L17.44 6.85C17.15 5.94 16.92 5.12 16.92 5.03C16.92 4.85 16.73 4.83 16.25 4.96C15.94 5.05 15.94 5.06 15.94 8.01C15.94 10.66 15.96 10.97 16.16 10.89C16.28 10.84 16.47 10.8 16.58 10.8ZM42.38 8.11L42.34 5.27L42.7 5.36C42.89 5.41 43.05 5.39 43.05 5.32C43.05 5.25 42.86 5.16 42.63 5.13L42.21 5.06L42.21 8.01C42.21 9.62 42.26 10.95 42.32 10.95C42.37 10.95 42.4 9.67 42.38 8.11ZM40.35 8.45C40.32 8.03 40.3 8.38 40.3 9.21C40.3 10.05 40.32 10.39 40.35 9.97C40.38 9.55 40.38 8.87 40.35 8.45L40.35 8.45ZM22.97 9.92C23.74 9.72 24.12 9.21 24.2 8.28C24.25 7.59 24.22 7.45 23.92 7.14C23.58 6.8 23.58 6.78 23.83 6.47C24.22 5.97 24.17 4.95 23.74 4.5C23.41 4.16 23.3 4.14 22.23 4.18L21.07 4.22L21.03 7.2L20.99 10.18L21.73 10.12C22.14 10.08 22.7 10 22.97 9.92L22.97 9.92ZM21.84 8.27L21.84 7.33L22.38 7.33C23.03 7.33 23.38 7.67 23.38 8.3C23.38 8.87 23 9.21 22.35 9.21L21.84 9.21L21.84 8.27ZM21.89 6.4C21.85 6.29 21.84 5.92 21.86 5.57C21.9 5.01 21.95 4.94 22.29 4.9C22.9 4.82 23.24 5.1 23.24 5.65C23.24 6.21 23.08 6.38 22.43 6.51C22.1 6.57 21.95 6.54 21.89 6.4L21.89 6.4ZM38 7.39C38 4.62 38 4.55 38.28 4.62C38.43 4.66 38.56 4.65 38.56 4.58C38.56 4.48 38.09 4.3 37.82 4.29C37.76 4.29 37.71 5.63 37.71 7.26C37.71 9.14 37.77 10.22 37.85 10.22C37.94 10.22 38 9.18 38 7.39ZM47.24 6.53C47.62 6.61 47.62 6.61 47.2 6.4L46.78 6.2L46.74 7.87C46.7 9.38 46.68 9.52 46.49 9.27C46.3 9.02 46.3 9.03 46.43 9.43C46.74 10.35 46.78 10.24 46.82 8.38L46.85 6.46L47.24 6.53ZM36.03 9.85C36.26 9.7 36.28 9.66 36.1 9.73C35.94 9.78 35.6 9.88 35.33 9.94C34.84 10.04 34.84 10.05 35.26 10.06C35.49 10.06 35.84 9.97 36.03 9.85L36.03 9.85ZM27.43 9.64C28 9.29 28.29 8.62 28.39 7.43C28.62 4.96 27.52 3.25 26.15 3.93C25.44 4.27 25.04 5.18 24.96 6.61C24.81 9.22 25.93 10.59 27.43 9.64ZM26.2 8.79C25.63 8.19 25.62 5.72 26.19 5.09C26.62 4.62 26.97 4.63 27.28 5.12C27.47 5.42 27.53 5.81 27.53 6.9C27.53 7.98 27.47 8.37 27.28 8.68C26.99 9.14 26.58 9.18 26.2 8.79ZM32.52 9.64C32.52 9.58 32.33 8.99 32.11 8.35L31.71 7.17L32.04 6.94C32.8 6.43 32.77 4.78 32 4.15C31.7 3.91 31.43 3.86 30.53 3.86L29.43 3.86L29.43 9.79L29.78 9.79C30.12 9.79 30.13 9.78 30.13 8.49L30.13 7.19L30.51 7.19C30.88 7.19 30.92 7.26 31.3 8.53C31.7 9.86 31.71 9.88 32.11 9.82C32.33 9.79 32.52 9.7 32.52 9.64ZM31.91 9.54C31.88 9.48 31.68 8.89 31.47 8.23L31.09 7.04L30.54 7.04C30.19 7.04 29.99 6.97 29.99 6.86C29.99 6.74 30.25 6.67 30.77 6.66C31.19 6.64 31.63 6.56 31.74 6.47C32.26 6.02 32.08 4.9 31.45 4.6C31.03 4.4 30.18 4.38 30.07 4.57C30.02 4.64 29.98 5.42 29.96 6.3C29.95 7.18 29.9 7.87 29.85 7.82C29.81 7.78 29.75 6.93 29.71 5.94L29.64 4.14L30.62 4.15C31.77 4.15 32.14 4.34 32.38 5.09C32.6 5.77 32.44 6.39 31.94 6.79L31.53 7.12L31.94 8.38C32.26 9.35 32.31 9.65 32.16 9.65C32.06 9.65 31.94 9.6 31.91 9.54ZM30.18 6.26C30.14 6.15 30.13 5.75 30.15 5.36C30.2 4.68 30.22 4.65 30.65 4.61C31.56 4.52 32.2 5.74 31.5 6.24C31.11 6.52 30.29 6.53 30.18 6.26ZM34.36 9.57C33.81 9.09 33.59 8.38 33.58 7.04C33.57 5.59 33.92 4.63 34.55 4.35C35.19 4.08 35.95 4.34 36.28 4.94C36.37 5.1 36.44 5.14 36.45 5.04C36.45 4.93 36.27 4.66 36.04 4.42C35.72 4.1 35.5 4 35.08 4C33.86 4 33.3 5.06 33.38 7.21C33.44 8.69 33.74 9.58 34.26 9.79C34.77 10.01 34.8 9.95 34.36 9.57ZM35.79 9.29C36.28 8.78 36.19 7.62 35.66 7.62C35.55 7.62 35.47 7.52 35.47 7.39C35.47 7.23 35.54 7.18 35.69 7.24C35.81 7.29 36.06 7.33 36.24 7.33C36.54 7.33 36.58 7.4 36.63 8.09L36.68 8.85L36.71 7.95L36.73 7.04L35.96 7.04C35.23 7.04 35.19 7.06 35.19 7.39C35.19 7.67 35.27 7.75 35.57 7.79C35.91 7.83 35.95 7.89 35.91 8.27C35.84 8.91 35.64 9.21 35.29 9.21C34.76 9.2 34.35 8.75 34.22 8.05C34.13 7.61 34.09 7.53 34.08 7.79C34.03 8.98 35.14 9.96 35.79 9.29ZM36.56 9.14C36.52 9.09 36.44 9.17 36.39 9.31C36.31 9.52 36.33 9.54 36.47 9.39C36.56 9.3 36.61 9.18 36.56 9.14ZM40.38 6.09C40.38 5.03 40.39 5.01 40.74 5.01C40.95 5.01 41.07 4.95 41.02 4.87C40.97 4.79 40.77 4.72 40.59 4.72C40.25 4.72 40.24 4.75 40.24 5.88C40.24 6.72 40.19 7.04 40.07 7.03C39.97 7.03 39.59 6.97 39.23 6.91C38.86 6.85 38.56 6.85 38.56 6.91C38.56 6.97 38.86 7.06 39.23 7.12C39.59 7.17 39.96 7.23 40.03 7.25C40.32 7.34 40.38 7.14 40.38 6.09L40.38 6.09ZM34.27 5.84C34.32 5.54 34.48 5.16 34.63 5.01C34.78 4.85 34.84 4.72 34.77 4.72C34.52 4.72 34.18 5.43 34.12 6.06C34.05 6.77 34.14 6.65 34.27 5.84ZM36.03 5.67C36.03 5.48 35.69 4.88 35.54 4.82C35.43 4.78 35.45 4.92 35.6 5.24C35.78 5.65 36.03 5.9 36.03 5.67ZM36.59 5.45C36.59 5.38 36.5 5.35 36.38 5.4C36.26 5.44 36.17 5.5 36.17 5.54C36.17 5.57 36.26 5.59 36.38 5.59C36.5 5.59 36.59 5.53 36.59 5.45ZM7.72 5.04C7.68 5 7.57 5.04 7.47 5.14C7.33 5.28 7.35 5.3 7.55 5.22C7.69 5.17 7.77 5.09 7.72 5.04L7.72 5.04Z" fill="#9F6B08" fill-opacity="1.000000" fill-rule="nonzero"/>
		<path id="Vector" d="M28.66 57.86C28.13 57.78 27.78 57.61 27.02 57.05C24.43 55.13 22.28 53.36 20.37 51.54C19.63 50.84 18.01 49.16 17.44 48.5C15.12 45.82 13.2 43.07 10.84 39.07C10.32 38.19 9.68 36.88 8.82 34.88C6 28.4 4.53 21.86 4.1 13.89C4.02 12.34 3.99 11.14 4 9.38C4 7.93 4.01 7.75 4.08 7.37C4.21 6.64 4.46 5.95 4.76 5.49C5.14 4.92 6.17 4.09 6.99 3.7C8.14 3.14 10.97 2.28 13.51 1.71C14.2 1.55 15.56 1.27 16.02 1.19C16.16 1.16 16.44 1.11 16.66 1.07C16.87 1.03 17.15 0.99 17.29 0.97C17.42 0.95 17.65 0.91 17.78 0.88C17.92 0.85 18.17 0.81 18.34 0.79C18.61 0.75 18.88 0.71 19.15 0.68C19.42 0.64 19.72 0.6 19.8 0.59C20.65 0.48 20.93 0.45 21.49 0.39C24.35 0.08 28.15 -0.07 30.9 0.02C32.1 0.07 34.83 0.23 35.05 0.27C35.11 0.28 35.38 0.3 35.65 0.31C35.91 0.33 36.36 0.37 36.63 0.4C36.9 0.44 37.33 0.49 37.59 0.52C38.82 0.66 39.88 0.8 40.34 0.88C40.5 0.91 40.94 0.98 41.3 1.04C45.17 1.67 48.38 2.59 50.76 3.74C51.79 4.25 52.2 4.53 52.71 5.07C53.29 5.71 53.64 6.38 53.82 7.23C53.98 7.95 53.91 12.41 53.7 15.24C53.41 19.11 52.91 22.37 52.1 25.77C51.21 29.45 50.03 32.82 48.31 36.56C47.73 37.82 47.57 38.13 47.08 38.97C46.83 39.41 46.6 39.8 46.6 39.82C46.59 39.84 46.53 39.93 46.47 40.02C46.42 40.09 46.37 40.17 46.32 40.25C46.3 40.29 46.21 40.44 46.13 40.58C46.05 40.71 45.97 40.85 45.97 40.87C45.96 40.89 45.95 40.9 45.93 40.92C45.92 40.93 45.84 41.05 45.75 41.19C45.67 41.33 45.54 41.54 45.46 41.65C45.39 41.76 45.33 41.87 45.33 41.89C45.33 41.91 45.32 41.93 45.3 41.94C45.27 41.96 45.08 42.25 45.08 42.29C45.08 42.31 45.06 42.33 45.03 42.34C45 42.35 44.98 42.38 44.98 42.4C44.98 42.42 44.89 42.57 44.78 42.73C44.68 42.88 44.59 43.03 44.59 43.05C44.59 43.07 44.57 43.09 44.54 43.1C44.52 43.11 44.51 43.12 44.5 43.13C44.49 43.15 44.49 43.16 44.49 43.18C44.49 43.21 44.47 43.24 44.46 43.24C44.44 43.24 44.4 43.28 44.38 43.33C44.35 43.39 44.31 43.45 44.3 43.47C44.18 43.63 44.04 43.83 43.78 44.21C43.53 44.58 43.26 44.95 42.91 45.44C39.74 49.77 36.43 53.01 31.23 56.89C30.47 57.46 30.12 57.66 29.67 57.78C29.36 57.86 28.93 57.89 28.66 57.86ZM29.56 57.53C30 57.41 30.36 57.21 31.06 56.69C37.7 51.74 41.41 47.71 45.64 40.85C46.78 39.01 47.33 38.04 47.78 37.07C49.01 34.43 49.9 32.23 50.63 30.01C52.4 24.61 53.35 18.9 53.59 12.29C53.65 10.74 53.64 7.74 53.57 7.36C53.4 6.35 52.8 5.38 51.9 4.7C51.58 4.45 50.42 3.85 49.69 3.54C47.51 2.64 45.01 1.96 41.74 1.39C39.82 1.05 37.32 0.74 34.9 0.54C34.65 0.51 34.36 0.49 34.25 0.48C33.92 0.45 32.38 0.36 31.49 0.31C29.8 0.23 26.73 0.28 24.58 0.41C18.96 0.76 12.8 1.9 8.57 3.37C7.4 3.77 6.99 3.96 6.39 4.36C5.41 5.01 4.97 5.51 4.65 6.3C4.27 7.23 4.2 8.01 4.26 10.81C4.33 14.36 4.54 17.13 4.95 20.04C5.76 25.81 7.18 30.68 9.61 36.02C10.55 38.09 10.82 38.59 12.33 41.03C12.7 41.63 13.71 43.17 14.13 43.78C16.96 47.87 19.7 50.83 23.78 54.19C24.84 55.06 27.36 57 27.79 57.27C27.94 57.36 28.35 57.53 28.54 57.56C28.81 57.62 29.27 57.6 29.56 57.53ZM28.62 56.07C28.4 56.01 27.91 55.66 26.91 54.87C20.78 49.99 17.31 46.17 13.85 40.47C13.39 39.7 12.77 38.64 12.36 37.88C11.94 37.12 10.62 34.29 9.96 32.74C7.61 27.25 6.33 21.55 5.93 14.92C5.79 12.59 5.77 9.4 5.89 8.73C6.02 8 6.26 7.36 6.58 6.86C6.93 6.32 7.58 5.78 8.2 5.52C9.47 4.99 12.35 4.15 14.81 3.6C19.09 2.64 23.09 2.14 27.57 2.02C28.81 1.98 30.95 1.99 31.39 2.04C31.47 2.04 31.77 2.06 32.06 2.07C34.83 2.18 38.56 2.59 41.23 3.07C44.53 3.66 47.05 4.41 49.2 5.45C49.54 5.62 49.93 5.81 50.08 5.88C51.26 6.44 51.81 7.32 51.99 8.96C52.08 9.77 51.87 13.76 51.59 16.56C50.79 24.53 49.2 30.34 46.21 36.23C45 38.6 43.06 41.85 41.6 43.96C39.09 47.58 36.67 50.11 31.78 54.19C31.68 54.27 31.27 54.62 30.86 54.96C30.45 55.3 30.02 55.65 29.89 55.74C29.43 56.06 28.98 56.17 28.62 56.07ZM19.5 43.13C19.93 42.93 20.08 42.62 20.14 41.77C20.17 41.2 20.28 40.99 20.56 40.93L20.7 40.9L20.68 40.56C20.66 40.04 20.66 39.29 20.69 39.17C20.71 39.12 20.88 38.87 21.08 38.61C21.55 38.01 21.83 37.59 21.91 37.38C21.95 37.28 22.01 36.97 22.05 36.68C22.14 36.1 22.1 36.18 22.74 35.12C22.92 34.8 23.21 34.27 23.36 33.94C23.53 33.59 23.7 33.29 23.78 33.2C23.85 33.12 23.92 33.05 23.99 32.97C24.02 32.92 24.07 32.89 24.09 32.89C24.16 32.89 24.37 33.11 24.45 33.28C24.53 33.44 24.53 33.48 24.53 34.29C24.53 35.13 24.53 35.14 24.61 35.2C24.66 35.24 24.73 35.27 24.78 35.27C24.86 35.27 24.86 35.27 24.76 35.16C24.62 35.01 24.58 34.79 24.61 34.17C24.63 33.69 24.62 33.63 24.55 33.41C24.51 33.28 24.48 33.12 24.49 33.06C24.5 32.95 24.5 32.94 24.65 32.93C24.83 32.92 24.91 32.85 25.01 32.66C25.08 32.53 25.09 32.42 25.08 32.21C25.08 32.11 25.05 32.08 24.89 31.99C24.65 31.86 24.59 31.76 24.54 31.45C24.49 31.11 24.54 30.03 24.61 29.78C24.67 29.56 24.7 29.56 24.95 29.74C25.2 29.91 25.95 30.24 26.31 30.33C26.77 30.45 27.38 30.46 27.57 30.36C27.74 30.27 28.37 29.78 28.64 29.52C28.76 29.41 28.95 29.24 29.07 29.16C29.19 29.07 29.3 28.98 29.42 28.88C29.49 28.81 29.59 28.76 29.63 28.76C29.76 28.76 30.09 28.9 30.21 29C30.42 29.18 30.32 29.37 29.8 29.71C29.39 29.99 28.96 30.47 28.76 30.88C28.67 31.06 28.24 32.36 28.24 32.46C28.24 32.61 28.36 32.93 28.47 33.09C28.89 33.7 29.1 34.04 29.14 34.21C29.17 34.31 29.21 34.46 29.24 34.53C29.36 34.81 29.22 34.96 28.76 35.08C28.58 35.12 28.34 35.17 28.23 35.19L28.03 35.21L28.09 35.3C28.14 35.38 28.15 35.38 28.18 35.33C28.2 35.28 28.28 35.27 28.61 35.27C28.93 35.27 29.05 35.26 29.2 35.2L29.38 35.12L29.47 35.24C29.57 35.36 30.14 35.97 30.14 35.94C30.14 35.85 29.87 35.22 29.65 34.8C29.5 34.52 29.31 34.12 29.22 33.93C29.13 33.74 28.94 33.42 28.77 33.2C28.62 32.98 28.47 32.76 28.46 32.71C28.41 32.53 28.44 32.22 28.52 31.97C28.66 31.57 28.77 31.6 28.77 32.03C28.77 32.34 28.81 32.43 29.15 32.93C29.53 33.5 29.56 33.55 29.75 34.05C29.92 34.46 30.12 34.85 30.36 35.19C30.47 35.37 30.7 35.99 30.7 36.14C30.7 36.2 30.66 36.28 30.58 36.35L30.47 36.47L30.39 36.37C30.35 36.32 30.3 36.29 30.29 36.3C30.28 36.31 30.26 36.43 30.25 36.56C30.24 36.79 30.24 36.79 30.36 36.91C30.48 37.02 30.49 37.04 30.49 37.24C30.49 37.51 30.57 37.68 30.73 37.79C30.79 37.84 31 37.9 31.23 37.95L31.62 38.03L31.76 37.92C32 37.72 32.28 37.37 32.32 37.22C32.37 37.05 32.34 36.9 32.24 36.81C32.2 36.76 32.16 36.71 32.12 36.65C32.05 36.5 32.11 36.47 32.43 36.47C32.68 36.47 32.71 36.46 32.79 36.36C32.88 36.25 33.12 35.71 33.26 35.3C33.33 35.09 33.35 34.97 33.34 34.7C33.34 34.42 33.36 34.31 33.43 34.08C33.56 33.71 33.56 33.44 33.44 33.19C33.33 32.99 33.26 32.91 33 32.74C32.71 32.56 32.75 32.44 33.14 32.29C33.37 32.2 33.48 32.1 33.48 32C33.48 31.91 33.48 31.91 33.17 31.93C32.86 31.96 32.86 31.95 32.79 31.85C32.6 31.56 32.49 31.52 32.29 31.66C32.07 31.82 31.58 32.73 31.58 32.98C31.58 33.12 31.74 33.27 32.03 33.39C32.18 33.46 32.34 33.53 32.38 33.56C32.53 33.66 32.6 33.82 32.6 34.07C32.6 34.19 32.62 34.34 32.64 34.39C32.66 34.45 32.67 34.59 32.68 34.72C32.68 34.91 32.66 35 32.57 35.18C32.43 35.48 31.98 36.07 31.87 36.11C31.74 36.16 31.61 36.05 31.55 35.85C31.5 35.71 31.51 35.68 31.58 35.51C31.75 35.13 31.77 34.98 31.73 34.42C31.71 34.14 31.67 33.87 31.65 33.81C31.57 33.65 31.46 33.7 31.21 34C30.99 34.29 30.84 34.4 30.71 34.41C30.59 34.41 30.55 34.28 30.57 33.99C30.59 33.7 30.66 33.5 30.91 32.94C31.1 32.51 31.4 31.71 31.5 31.35C31.58 31.07 31.59 30.39 31.51 30.1C31.48 29.95 31.42 29.85 31.28 29.7C30.96 29.36 30.55 28.76 30.33 28.33C30.07 27.83 29.9 27.31 29.99 27.31C30.04 27.31 30.43 27.83 30.59 28.1C30.79 28.43 30.89 28.52 31.06 28.5C31.19 28.48 31.19 28.48 31.21 28.61C31.28 29.04 31.48 29.46 31.79 29.83C31.94 30 32.53 30.5 32.7 30.59C32.91 30.69 33.23 30.8 33.62 30.89C33.86 30.95 34.04 30.97 34.49 30.97C35.09 30.97 35.23 30.94 35.37 30.79C35.41 30.75 35.53 30.69 35.65 30.65C35.76 30.6 35.89 30.55 35.94 30.52C36.06 30.46 36.15 30.31 36.13 30.22C36.11 30.15 36.08 30.14 35.67 30.12C35.13 30.1 34.66 29.98 34.3 29.8C34.14 29.71 33.97 29.64 33.81 29.57C33.39 29.41 33.08 29.16 33.01 28.92C32.97 28.8 33.04 28.69 33.18 28.67C33.25 28.65 33.31 28.63 33.32 28.61C33.33 28.59 33.37 28.58 33.4 28.58C33.55 28.58 33.56 28.53 33.48 28.19C33.39 27.78 33.39 27.71 33.48 27.71C33.62 27.71 33.73 27.8 33.92 28.1C34.04 28.27 34.22 28.51 34.33 28.62C34.51 28.81 34.54 28.83 34.67 28.83C34.75 28.83 34.82 28.82 34.83 28.8C34.84 28.78 34.82 28.7 34.78 28.62C34.74 28.53 34.71 28.4 34.71 28.29C34.71 28.14 34.73 28.09 34.82 27.98C34.92 27.86 34.94 27.86 35.13 27.86C35.37 27.86 35.52 27.94 35.66 28.16C35.73 28.28 35.76 28.29 35.9 28.29C36.02 28.29 36.1 28.26 36.19 28.19C36.31 28.11 36.34 28.1 36.42 28.14C36.46 28.16 36.54 28.24 36.59 28.32C36.63 28.39 36.72 28.5 36.78 28.56C36.88 28.65 36.9 28.66 37.07 28.64C37.18 28.62 37.31 28.63 37.36 28.65C37.52 28.71 37.53 28.8 37.47 29.16C37.41 29.46 37.41 29.49 37.47 29.64C37.5 29.73 37.57 29.85 37.63 29.92C37.75 30.06 37.75 30.06 37.81 30.52C37.86 30.95 37.81 31.26 37.64 31.74C37.55 31.97 37.46 32.21 37.37 32.45C37.3 32.64 37.2 32.85 37.14 32.92L37.04 33.04L37.19 33.16C37.37 33.3 37.51 33.55 37.71 34.07C38 34.82 38.02 34.91 38.03 35.2C38.03 35.43 38.01 35.54 37.88 35.93C37.68 36.55 37.68 36.79 37.86 37.03C37.93 37.12 37.98 37.22 37.98 37.25C37.98 37.29 37.89 37.46 37.79 37.64C37.35 38.39 37.35 38.73 37.79 39.15C38.03 39.37 38.23 39.48 38.36 39.46C38.45 39.45 38.46 39.44 38.47 39.25C38.48 39.03 38.58 38.88 38.7 38.9C38.76 38.91 38.77 38.95 38.8 39.16C38.83 39.46 38.84 39.51 38.92 39.51C39.07 39.51 39.56 39.12 39.66 38.92L39.71 38.81L39.56 38.92C39.47 38.98 39.37 39.07 39.32 39.12C39.22 39.24 39.11 39.24 38.99 39.15C38.87 39.05 38.85 38.91 38.91 38.63C38.99 38.32 38.97 38.07 38.84 37.96C38.76 37.89 38.71 37.88 38.48 37.88C38.33 37.88 38.19 37.86 38.16 37.85C38.06 37.78 38.17 37.64 38.4 37.52C38.73 37.35 38.75 37.23 38.46 37.08C38.27 36.98 38.23 36.92 38.23 36.75C38.23 36.57 38.35 36.39 38.54 36.32C38.77 36.23 38.86 36.11 38.86 35.88C38.86 35.64 38.78 35.47 38.56 35.31C38.22 35.04 38.23 35.06 38.23 34.73C38.23 34.5 38.24 34.43 38.29 34.37C38.34 34.33 38.36 34.23 38.38 34.01C38.39 33.82 38.42 33.66 38.47 33.56C38.59 33.31 38.57 33.25 38.35 32.9C38.2 32.68 38.16 32.46 38.16 31.94C38.16 31.73 38.14 31.51 38.12 31.46C38.08 31.34 38.12 30.93 38.18 30.91C38.28 30.87 38.44 30.98 38.55 31.17C38.68 31.38 38.7 31.4 38.73 31.29C38.76 31.18 38.93 31.2 39.33 31.39C40.25 31.8 41.28 31.88 41.84 31.59C42.15 31.42 42.72 30.91 42.87 30.67C43.01 30.44 43 30.43 42.43 30.45C41.85 30.47 41.51 30.43 41.13 30.29C40.8 30.17 40.45 29.93 40.25 29.68C40.16 29.58 39.92 29.35 39.72 29.18C39.52 29.01 39.35 28.84 39.34 28.81C39.33 28.8 39.32 28.79 39.31 28.78C39.29 28.77 39.28 28.76 39.26 28.76C39.15 28.76 38.68 28.53 38.42 28.36C38.27 28.26 38.09 28.15 38.01 28.11C37.76 27.97 36.8 27.77 36.2 27.73L35.87 27.7L35.85 27.57C35.81 27.33 35.73 27.17 35.52 26.83C35.34 26.55 35.31 26.47 35.31 26.33C35.31 26.14 35.23 25.96 34.98 25.54C34.85 25.34 34.76 25.14 34.71 24.94C34.67 24.79 34.57 24.51 34.5 24.34C34.33 23.94 34.27 23.73 34.22 23.31C34.16 22.86 34.1 22.6 33.94 22.17C33.87 21.96 33.77 21.62 33.73 21.4C33.62 20.83 33.57 20.72 33.29 20.29C33.15 20.08 33.02 19.85 33 19.78C32.99 19.71 32.94 19.61 32.88 19.55C32.83 19.49 32.73 19.33 32.65 19.2C32.58 19.08 32.51 18.97 32.43 18.85C32.39 18.78 32.35 18.68 32.35 18.63C32.35 18.47 32.44 18.43 32.7 18.44C33.26 18.46 33.69 18.89 34.25 19.98C34.7 20.85 35.07 21.3 35.53 21.54C35.71 21.63 35.82 21.67 35.94 21.67C36.15 21.67 36.23 21.59 36.25 21.35C36.27 21.14 36.23 20.94 36.04 20.33C35.93 19.97 35.89 19.8 35.88 19.51C35.85 19.06 35.83 19.03 35.43 18.89C35.09 18.77 35.07 18.7 35.35 18.63C35.63 18.56 35.92 18.64 36.25 18.87C36.46 19.02 36.5 19.03 36.64 19.02C36.76 19 36.83 18.96 36.99 18.8C37.18 18.63 37.19 18.6 37.18 18.48C37.16 18.33 37.26 18.11 37.38 17.99C37.49 17.9 37.55 17.75 37.67 17.27C37.83 16.64 37.79 16.12 37.54 15.68C37.34 15.33 36.4 14.56 35.86 14.3C35.36 14.07 35.33 14.06 32.64 14.03C29.63 14 28.29 13.93 27.9 13.79C27.34 13.6 26.93 13.24 26.99 13C27.02 12.86 27.21 12.67 27.38 12.6C27.69 12.48 28.14 12.56 29 12.92C29.79 13.25 30.26 13.33 31.17 13.3C31.98 13.27 32.62 13.17 32.79 13.05C32.85 13 32.85 13 32.79 12.94C32.75 12.91 32.49 12.82 32.21 12.75C31.6 12.58 31.27 12.45 31.27 12.38C31.27 12.33 31.33 12.32 31.73 12.34C32.2 12.36 32.73 12.45 33.13 12.58C33.39 12.67 33.96 12.68 34.14 12.62C34.27 12.57 34.29 12.48 34.2 12.39C33.97 12.16 32.74 11.7 31.79 11.5C31.19 11.37 30.72 11.34 29.73 11.36C28.5 11.39 27.99 11.48 27.4 11.79C26.92 12.04 26.36 12.56 26.18 12.93C25.98 13.35 26.12 13.64 26.71 14C27.12 14.26 27.45 14.36 28.14 14.46C29.38 14.65 30.26 14.69 32.69 14.69C33.87 14.69 34.82 14.7 34.94 14.72C35.3 14.78 35.73 14.94 35.96 15.1C36.22 15.28 36.54 15.67 36.71 16C36.82 16.23 36.83 16.29 36.84 16.53C36.84 16.76 36.82 16.83 36.74 16.99C36.6 17.24 36.32 17.56 36.18 17.62C36.02 17.69 35.62 17.61 35.15 17.43C34.83 17.3 34.71 17.28 34.38 17.25C33.95 17.22 33.9 17.21 33.27 16.92C32.61 16.62 31.63 16.29 31.13 16.2C30.89 16.16 30.66 16.21 30.33 16.36C30 16.52 29.81 16.68 29.15 17.33C28.52 17.94 28.24 18.17 27.89 18.34C27.26 18.66 25.45 19.7 25.29 19.85C25.04 20.07 24.62 20.59 24.45 20.9C24.13 21.45 24.03 21.89 23.99 22.92C23.96 23.61 23.96 23.65 23.85 23.94C23.73 24.26 23.4 24.83 22.96 25.51C22.55 26.14 22.25 26.65 22.05 27.05C21.66 27.85 21.6 28.16 21.56 29.29L21.54 30.12L21.41 30.5C21.34 30.71 21.19 31.1 21.08 31.37C20.68 32.36 20.69 32.31 20.65 34.13L20.62 35.47L20.48 35.77C20.39 35.94 20.26 36.18 20.17 36.3C19.98 36.6 19.92 36.83 19.85 37.68C19.83 37.95 19.81 38.22 19.78 38.48C19.77 38.62 19.71 38.69 19.32 39.13C18.58 39.98 18.29 40.41 18.29 40.72C18.29 40.87 18.28 40.89 18.14 40.99C17.87 41.18 17.48 41.63 17.36 41.91C17.2 42.24 17.17 42.55 17.26 42.73C17.36 42.93 17.43 42.9 17.72 42.5L17.98 42.14L18.07 42.23C18.11 42.27 18.15 42.33 18.15 42.35C18.15 42.38 18.09 42.53 18.01 42.7C17.93 42.87 17.87 43.04 17.88 43.09C17.89 43.21 18.01 43.23 18.75 43.22C19.27 43.22 19.35 43.21 19.5 43.13ZM19.18 41.17C19.06 41.12 18.87 40.7 18.9 40.54C18.93 40.4 18.96 40.39 19.15 40.47C19.34 40.55 19.43 40.53 19.61 40.39C19.78 40.26 19.83 40.24 19.9 40.31C19.96 40.38 19.95 40.49 19.87 40.65L19.74 40.89C19.64 41.08 19.34 41.23 19.18 41.17ZM20.31 37.75C20.23 37.67 20.22 37.64 20.22 37.36C20.22 37.19 20.22 37.03 20.21 37C20.2 36.98 20.21 36.93 20.22 36.9C20.25 36.86 20.28 36.87 20.37 36.97C20.45 37.06 20.5 37.08 20.62 37.08C20.72 37.08 20.79 37.06 20.84 37.01C20.95 36.9 21.03 36.94 21.03 37.09C21.02 37.34 20.87 37.61 20.67 37.75C20.49 37.87 20.42 37.87 20.31 37.75L20.31 37.75ZM31.5 37.43C31.41 37.4 31.31 37.37 31.3 37.35C31.23 37.28 31.18 36.84 31.21 36.73C31.29 36.51 31.55 36.61 31.62 36.89C31.66 37.04 31.66 37.05 31.8 37.05C31.95 37.05 32 37.11 32 37.31C32 37.42 31.99 37.44 31.89 37.46C31.75 37.49 31.7 37.49 31.5 37.43ZM21.04 34.43C20.9 34.36 20.85 34.18 20.86 33.81C20.88 33.46 21.02 33.14 21.2 33.01L21.32 32.92L21.41 33.03C21.46 33.1 21.53 33.14 21.58 33.14C21.71 33.14 21.98 32.98 22.18 32.79C22.3 32.67 22.42 32.56 22.55 32.44C22.8 32.22 22.86 32.07 22.86 31.7C22.86 31.22 22.82 31.12 22.6 30.91C22.38 30.71 22.29 30.52 22.29 30.26C22.29 29.95 22.44 29.77 22.7 29.77C22.85 29.77 22.95 29.87 23.13 30.19C23.43 30.73 23.87 30.93 24.16 30.68C24.3 30.55 24.35 30.55 24.42 30.63C24.47 30.67 24.48 30.78 24.48 31.2C24.48 31.49 24.49 31.76 24.51 31.81C24.53 31.87 24.61 31.92 24.74 31.98C24.98 32.08 25.06 32.2 25.03 32.44C25.01 32.64 24.9 32.76 24.72 32.81C24.52 32.87 24.38 32.82 23.78 32.47C23.59 32.37 23.39 32.35 23.27 32.44C23.22 32.47 23.1 32.61 23 32.74C22.86 32.94 22.74 33.05 22.47 33.23C22.09 33.5 21.98 33.61 21.76 33.97C21.6 34.23 21.41 34.44 21.34 34.44C21.32 34.44 21.27 34.45 21.23 34.46C21.19 34.47 21.11 34.45 21.04 34.43L21.04 34.43ZM26.69 26.77C26.57 26.71 26.39 26.64 26.29 26.62C26.06 26.57 25.93 26.5 25.87 26.39C25.82 26.32 25.82 26.29 25.87 26.09C25.93 25.83 25.9 25.63 25.78 25.52C25.71 25.46 25.65 25.45 25.4 25.46C25.22 25.46 25.03 25.49 24.94 25.52C24.86 25.55 24.78 25.58 24.78 25.58C24.76 25.58 24.8 25.23 24.83 25.1C24.86 25 24.9 24.94 24.99 24.89C25.2 24.75 25.23 24.68 25.21 24.31C25.18 23.88 25.23 23.66 25.37 23.66C25.39 23.66 25.46 23.72 25.53 23.79C25.62 23.89 25.69 24.01 25.74 24.18C25.88 24.61 25.94 24.71 26.07 24.71C26.28 24.71 26.29 24.73 26.29 25.24C26.29 25.8 26.32 25.88 26.69 26.26C27.25 26.83 27.25 27.03 26.69 26.77ZM32.41 23.86C32.4 23.81 32.4 23.62 32.41 23.44L32.43 23.12L32.33 23.06C32.25 23 32.16 22.99 31.51 22.99C30.88 22.99 30.77 22.98 30.65 22.92L30.51 22.85L30.61 22.82C30.67 22.81 30.87 22.8 31.05 22.79C31.44 22.79 31.59 22.75 31.75 22.63C32.21 22.28 32.12 21.85 31.44 21.16C31.01 20.73 30.94 20.61 30.96 20.39L30.97 20.24L31.14 20.42C31.24 20.52 31.37 20.7 31.44 20.82C31.63 21.16 32.27 22.06 32.51 22.33C32.86 22.73 32.99 23.07 32.94 23.45C32.91 23.65 32.7 23.9 32.54 23.93C32.45 23.95 32.43 23.94 32.41 23.86L32.41 23.86ZM31.65 18.13C31.59 18.06 31.53 17.99 31.48 17.91C31.43 17.84 31.32 17.7 31.23 17.59C31.03 17.36 31 17.27 31.09 17.18C31.19 17.08 31.58 17.08 31.76 17.18C31.93 17.27 32.07 17.56 32.1 17.9L32.12 18.17L32.01 18.14C31.93 18.12 31.9 18.13 31.89 18.17C31.85 18.26 31.74 18.24 31.65 18.13ZM30.61 13.03C30.58 13.02 30.47 12.98 30.38 12.94C30.18 12.85 30.13 12.75 30.24 12.65C30.35 12.56 30.43 12.57 30.6 12.66C30.68 12.7 30.85 12.75 30.96 12.76C31.11 12.77 31.22 12.8 31.31 12.86C31.45 12.97 31.47 13 31.39 13.03C31.32 13.06 30.72 13.06 30.61 13.03L30.61 13.03ZM23.37 41.31C23.62 41.18 23.84 40.91 24.04 40.52C24.14 40.32 24.27 40.12 24.37 40.01C24.58 39.8 24.62 39.72 24.72 39.35C24.81 39.01 24.97 38.69 25.25 38.25C25.57 37.76 25.71 37.62 26.13 37.39C26.79 37.02 26.83 36.97 26.87 36.46C26.89 36.27 26.93 36.06 26.96 36C27.02 35.87 27.35 35.56 27.62 35.38L27.83 35.24L26.86 35.24C26.1 35.24 25.83 35.25 25.64 35.29C25.51 35.33 25.32 35.35 25.23 35.34L25.06 35.33L24.84 35.89C24.72 36.2 24.62 36.48 24.62 36.52C24.62 36.64 24.51 37.06 24.44 37.19C24.35 37.38 23.75 38.02 23.6 38.1C23.52 38.14 23.42 38.17 23.36 38.17C23.24 38.17 23.1 38.27 23.04 38.41C23.02 38.47 22.89 38.59 22.75 38.69C22.43 38.92 22.04 39.29 21.95 39.46C21.83 39.65 21.77 39.93 21.77 40.31C21.77 40.69 21.85 41.03 21.93 41.03C21.96 41.03 22.1 40.95 22.24 40.85C22.64 40.56 22.72 40.62 22.47 41.03C22.4 41.16 22.33 41.28 22.33 41.3C22.33 41.38 22.58 41.42 22.9 41.41C23.14 41.4 23.23 41.38 23.37 41.31ZM23.72 39.33C23.49 39.16 23.28 38.95 23.28 38.88C23.28 38.84 23.37 38.78 23.5 38.71L23.71 38.6L23.85 38.7C24.05 38.83 24.21 38.84 24.44 38.75C24.69 38.65 24.72 38.67 24.68 38.9C24.67 39.01 24.63 39.13 24.61 39.18C24.55 39.29 24.33 39.39 24.07 39.42C23.88 39.44 23.85 39.43 23.72 39.33L23.72 39.33ZM27.41 39.4C27.49 39.38 27.46 39.37 27.26 39.37C27.04 39.36 27.01 39.36 27.02 39.3C27.02 39.27 27.11 39.2 27.21 39.15C27.31 39.1 27.41 39.04 27.42 39.03C27.44 39.01 27.45 38.87 27.45 38.71C27.45 38.37 27.5 38.3 27.77 38.25C27.95 38.21 28.03 38.13 28.03 38C28.03 37.94 27.99 37.9 27.87 37.85C27.68 37.76 27.61 37.65 27.7 37.57C27.74 37.54 27.9 37.4 28.06 37.26C28.31 37.03 28.35 36.98 28.39 36.82C28.49 36.46 28.56 36.01 28.54 35.94C28.5 35.84 28.38 35.71 28.32 35.71C28.3 35.71 28.24 35.68 28.21 35.64C28.16 35.59 28.14 35.58 28.14 35.61C28.14 35.64 28.03 35.84 27.9 36.06C27.77 36.27 27.6 36.59 27.53 36.75C27.4 37.02 27.36 37.07 27.17 37.2C26.64 37.57 26.35 38.05 26.27 38.69C26.24 38.98 26.26 39.18 26.33 39.18C26.36 39.18 26.47 39.11 26.57 39.02C26.67 38.93 26.78 38.86 26.82 38.86C26.87 38.86 26.87 38.88 26.85 39.1L26.83 39.35L26.95 39.39C27.08 39.43 27.27 39.44 27.41 39.4ZM38.39 26.93C38.46 26.88 38.58 26.74 38.67 26.62L38.83 26.4L38.74 26.29C38.39 25.84 38.17 25.51 38 25.16C37.89 24.94 37.8 24.74 37.81 24.71C37.81 24.62 37.91 24.51 38.13 24.37C38.6 24.06 38.65 23.93 38.68 22.99C38.68 22.55 38.68 22.23 38.65 22.09C38.59 21.78 38.43 21.46 38.21 21.21L38.03 21L37.89 21.04C37.72 21.1 37.46 21.35 37.38 21.54C37.29 21.75 37.3 21.99 37.42 22.48C37.49 22.78 37.53 23 37.53 23.19C37.53 23.52 37.52 23.6 37.37 24.24C37.21 24.88 37.17 25.23 37.17 25.77C37.17 26.24 37.22 26.47 37.35 26.68C37.58 27.03 38.11 27.15 38.39 26.93ZM8.73 13.22C9.05 13.04 9.91 12.67 10.62 12.4L11.22 12.17L11.22 11.67C11.22 11.39 11.21 11.17 11.19 11.17C11.15 11.17 10.12 11.6 9.77 11.77C9.62 11.84 9.48 11.9 9.46 11.9C9.44 11.9 9.43 10.78 9.43 9.35C9.43 7.94 9.42 6.79 9.4 6.79C9.39 6.79 9.15 6.9 8.86 7.04L8.35 7.28L8.33 10.29C8.33 11.94 8.32 13.3 8.33 13.32C8.36 13.38 8.51 13.34 8.73 13.22ZM49.52 11.94C49.51 11.23 49.5 9.86 49.48 8.9L49.46 7.15L49 6.96C48.75 6.85 48.5 6.76 48.45 6.76L48.35 6.76L48.35 12.79L48.5 12.83C48.58 12.86 48.83 12.95 49.06 13.05C49.28 13.15 49.48 13.23 49.5 13.23C49.52 13.23 49.53 12.79 49.52 11.94ZM47.57 8.09L47.58 6.41L47.18 6.27C46.97 6.2 46.76 6.12 46.73 6.1C46.69 6.09 46.62 6.07 46.56 6.07L46.45 6.07L46.45 7.6C46.45 8.44 46.45 9.15 46.45 9.17C46.48 9.37 46.3 8.98 45.68 7.42C45.14 6.08 44.94 5.62 44.89 5.6C44.76 5.54 44.1 5.38 44 5.38L43.89 5.38L43.89 11.46L43.98 11.46C44.05 11.46 44.74 11.63 44.99 11.7C45.05 11.72 45.05 11.63 45.03 9.86C45.01 8.58 45.02 8.02 45.04 8.04C45.06 8.06 45.45 9.01 45.9 10.14L46.73 12.2L47.13 12.33L47.53 12.46L47.55 11.12C47.56 10.38 47.57 9.02 47.57 8.09L47.57 8.09ZM11.7 12.02C11.76 12 11.96 11.92 12.15 11.86C12.35 11.8 12.5 11.75 12.51 11.74C12.51 11.74 12.59 11.35 12.68 10.87L12.85 10.01L13.01 9.97C13.57 9.8 13.94 9.72 13.96 9.76C13.98 9.78 14.06 10.11 14.14 10.5C14.22 10.88 14.3 11.2 14.32 11.22C14.33 11.23 14.57 11.19 14.85 11.12C15.26 11.02 15.35 10.99 15.34 10.94C15.34 10.91 15.21 10.44 15.05 9.9C14.9 9.35 14.54 8.11 14.26 7.12C13.98 6.14 13.74 5.32 13.73 5.31C13.73 5.31 13.56 5.34 13.36 5.39C13.16 5.45 12.96 5.49 12.91 5.5C12.83 5.51 12.82 5.55 12.4 7.48C12.16 8.57 11.84 10.03 11.69 10.73C11.41 12 11.41 12.01 11.48 12.04C11.58 12.08 11.59 12.08 11.7 12.02ZM13.02 9.23C13.02 9.17 13.37 7.39 13.39 7.34C13.42 7.27 13.46 7.44 13.66 8.36L13.82 9.04L13.67 9.08C13.52 9.12 13.18 9.21 13.08 9.24C13.04 9.25 13.02 9.25 13.02 9.23L13.02 9.23ZM43.13 8.18L43.15 5.17L42.95 5.13C42.76 5.09 42.57 5.05 42.38 5C42.17 4.96 41.98 4.92 41.94 4.92C41.89 4.93 41.88 5.06 41.87 7.1C41.87 9.21 41.88 10.96 41.9 10.99C41.93 11.01 43.06 11.23 43.08 11.21C43.1 11.2 43.11 9.84 43.13 8.18L43.13 8.18ZM16.38 10.79C16.53 10.76 16.68 10.73 16.84 10.7C16.84 10.7 16.85 10.01 16.86 9.17C16.86 8.03 16.88 7.67 16.9 7.74C16.93 7.79 17.16 8.43 17.43 9.17C17.7 9.91 17.93 10.52 17.95 10.52C18.07 10.52 18.06 10.55 18.79 7.99C18.89 7.64 18.98 7.34 19 7.32C19.02 7.3 19.03 7.97 19.03 8.81C19.03 9.65 19.04 10.34 19.06 10.34C19.1 10.34 19.88 10.24 20 10.21L20.1 10.2L20.09 7.27C20.09 5.67 20.07 4.3 20.06 4.23C20.04 4.12 20.04 4.11 19.93 4.13C19.63 4.18 19.13 4.23 19.05 4.22C19 4.21 18.95 4.21 18.94 4.22C18.93 4.24 18.71 4.95 18.45 5.82C18.19 6.68 17.95 7.45 17.93 7.51C17.91 7.58 17.89 7.62 17.88 7.62C17.87 7.61 17.64 6.94 17.37 6.14C17.21 5.64 17.04 5.14 16.87 4.64C16.86 4.61 16.73 4.62 16.44 4.68C16.21 4.73 15.97 4.77 15.91 4.77L15.81 4.77L15.78 5.91C15.77 6.54 15.76 7.91 15.76 8.95C15.76 10.97 15.75 10.85 15.9 10.88C15.92 10.88 16.13 10.84 16.38 10.79L16.38 10.79ZM41.1 7.8L41.11 4.77L41.03 4.75C40.69 4.68 40.17 4.59 40.07 4.59L39.96 4.59L39.98 5.76C39.99 6.9 39.99 6.94 39.93 6.94C39.89 6.94 39.6 6.9 39.28 6.85C38.96 6.8 38.69 6.76 38.67 6.76C38.66 6.76 38.65 6.22 38.65 5.56L38.65 4.37L38.57 4.35C38.41 4.32 37.68 4.22 37.58 4.22L37.49 4.22L37.49 10.29L38.04 10.37C38.35 10.41 38.61 10.43 38.62 10.43C38.63 10.42 38.63 9.79 38.62 9.03L38.6 7.65L38.69 7.67C38.73 7.68 39.03 7.73 39.34 7.77L39.91 7.85L39.91 10.67L40.03 10.67C40.09 10.67 40.34 10.71 40.58 10.75C40.82 10.8 41.04 10.83 41.06 10.83C41.08 10.83 41.1 9.78 41.1 7.8L41.1 7.8ZM35.67 10.18C36.21 10.04 36.55 9.69 36.72 9.14C36.78 8.95 36.78 8.8 36.78 7.91L36.78 6.9L35.17 6.9L35.17 7.08C35.17 7.17 35.16 7.38 35.14 7.53L35.12 7.81L35.81 7.81L35.8 8.29C35.78 8.74 35.78 8.78 35.69 8.92C35.43 9.32 34.89 9.25 34.58 8.77C34.35 8.42 34.34 8.34 34.34 6.81C34.34 5.47 34.34 5.43 34.42 5.29C34.51 5.11 34.71 4.92 34.84 4.89C34.9 4.88 34.96 4.86 34.98 4.86C35.06 4.83 35.28 4.92 35.4 5.03C35.55 5.17 35.65 5.37 35.68 5.58L35.7 5.75L36.23 5.75C36.82 5.75 36.78 5.78 36.7 5.38C36.53 4.55 35.87 4.01 35.05 4.01C34.24 4.01 33.58 4.53 33.33 5.35C33.3 5.47 33.29 5.86 33.29 6.94C33.29 8.52 33.31 8.71 33.52 9.14C33.65 9.41 33.94 9.74 34.19 9.91C34.38 10.04 34.71 10.17 34.92 10.21C35.13 10.24 35.48 10.23 35.67 10.18L35.67 10.18ZM22.37 9.98C23.57 9.88 23.65 9.85 23.96 9.52C24.52 8.9 24.6 7.62 24.1 7.11C23.99 6.99 23.76 6.87 23.65 6.87C23.61 6.87 23.64 6.84 23.74 6.79C24.27 6.52 24.42 5.39 24.04 4.57C23.9 4.25 23.7 4.03 23.43 3.91L23.23 3.81L22.65 3.86C22.06 3.9 20.92 4.01 20.9 4.02C20.9 4.03 20.88 5.4 20.87 7.06L20.85 10.1L21.18 10.08C21.57 10.05 21.97 10.02 22.37 9.98ZM21.9 9.13C21.89 9.11 21.88 8.72 21.88 8.26L21.88 7.42L22.4 7.4L22.91 7.38L23.03 7.49C23.09 7.56 23.19 7.7 23.24 7.81C23.32 7.98 23.34 8.05 23.34 8.33C23.34 8.62 23.33 8.68 23.24 8.83C23.09 9.09 23 9.12 22.42 9.14C22.15 9.15 21.92 9.14 21.9 9.13L21.9 9.13ZM22.08 6.48L21.88 6.47L21.88 5.68L21.89 4.89L22.37 4.88L22.85 4.87L23.02 5.06C23.4 5.5 23.35 6.2 22.93 6.42C22.77 6.51 22.65 6.51 22.08 6.48L22.08 6.48ZM27.16 9.85C27.89 9.69 28.4 9.16 28.48 8.45C28.5 8.31 28.51 7.54 28.51 6.74C28.5 5.14 28.49 5.09 28.27 4.64C28.13 4.38 27.8 4.02 27.55 3.89C27.32 3.76 27.01 3.67 26.74 3.66C26.12 3.61 25.45 4.08 25.11 4.79C24.87 5.29 24.86 5.41 24.88 7.07C24.91 8.62 24.92 8.75 25.1 9.08C25.43 9.7 26.33 10.04 27.16 9.85ZM26.41 8.92C26.21 8.84 26.07 8.72 25.97 8.55L25.88 8.39L25.87 6.88L25.87 5.37L25.96 5.16C26.21 4.65 26.79 4.55 27.22 4.96C27.38 5.12 27.47 5.32 27.5 5.58C27.52 5.7 27.54 6.37 27.54 7.07C27.55 8.32 27.55 8.33 27.47 8.5C27.29 8.88 26.81 9.06 26.41 8.92ZM32.74 9.82C32.74 9.8 32.51 9.19 32.23 8.47C31.95 7.75 31.72 7.14 31.72 7.12C31.72 7.11 31.78 7.08 31.85 7.07C32.37 6.97 32.67 6.44 32.67 5.62C32.67 4.84 32.35 4.13 31.87 3.84C31.69 3.73 31.41 3.7 30.04 3.66L29.19 3.64L29.19 9.72L29.3 9.74C29.37 9.75 29.61 9.76 29.85 9.76L30.28 9.77L30.28 8.47L30.27 7.17L30.57 7.16L30.86 7.15L31.18 8.2C31.31 8.64 31.45 9.08 31.58 9.53L31.67 9.82L32.06 9.83C32.27 9.83 32.47 9.84 32.5 9.85C32.62 9.88 32.74 9.87 32.74 9.82L32.74 9.82ZM30.27 6.34C30.26 6.32 30.25 5.94 30.25 5.49L30.25 4.67L30.68 4.64C31.16 4.61 31.3 4.65 31.48 4.83C31.79 5.13 31.77 5.96 31.45 6.25L31.33 6.36L30.81 6.36C30.53 6.36 30.28 6.35 30.27 6.34Z" fill="#9F6B08" fill-opacity="1.000000" fill-rule="nonzero"/>
		<path id="Vector" d="M28.05 55.71C26.88 54.97 23.95 52.56 21.98 50.72C18.75 47.68 15.51 43.62 13.31 39.83C8.6 31.74 6.15 22.32 5.87 11.15C5.78 7.89 5.79 7.78 6.09 7.13C6.5 6.27 6.86 6.02 8.79 5.25C14.12 3.14 19.75 2.17 27.46 2.02C36.16 1.85 43.35 2.91 49.14 5.22C51.15 6.02 51.51 6.27 51.91 7.13C52.22 7.79 52.23 7.88 52.14 11.22C51.67 29.56 45.45 43.17 32.75 53.61C31.21 54.88 29.61 56.03 29.21 56.16C29.01 56.23 28.64 56.08 28.05 55.71L28.05 55.71ZM19.52 43.2C19.74 43.1 19.9 42.83 20.02 42.38C20.12 42.01 20.29 41.59 20.41 41.45C20.55 41.29 20.66 40.81 20.69 40.22C20.74 39.37 20.81 39.18 21.29 38.56C21.6 38.16 21.93 37.5 22.06 37.03C22.18 36.58 22.38 36.01 22.5 35.77C23.4 33.99 23.99 32.95 24.09 32.95C24.4 32.95 24.65 33.64 24.65 34.5C24.65 35.17 24.7 35.43 24.87 35.53C25.08 35.64 25.08 35.7 24.89 36.08C24.78 36.31 24.64 36.69 24.59 36.92C24.45 37.5 24 38.12 23.53 38.37C23.32 38.49 22.85 38.87 22.49 39.23C21.97 39.75 21.84 39.99 21.84 40.36C21.84 41 22.05 41.33 22.28 41.09C22.56 40.8 22.69 40.88 22.59 41.29C22.5 41.67 22.52 41.68 22.97 41.58C23.55 41.46 24.08 41.12 24.17 40.79C24.21 40.66 24.3 40.45 24.37 40.33C24.44 40.21 24.7 39.67 24.95 39.12C25.26 38.45 25.6 37.97 26.03 37.61C26.38 37.31 26.75 36.85 26.86 36.57C27.19 35.75 28.16 35.06 28.16 35.63C28.16 35.97 27.62 37 27.22 37.41C26.72 37.92 26.34 38.61 26.33 38.99C26.33 39.33 26.53 39.43 26.69 39.17C26.84 38.92 27.01 39.02 26.94 39.32C26.88 39.56 26.93 39.61 27.3 39.61C28.02 39.61 28.7 39.19 28.8 38.68C28.85 38.43 29.02 38.03 29.16 37.77C29.34 37.47 29.41 37.19 29.35 36.95C29.25 36.56 29.51 35.56 29.7 35.56C29.85 35.56 30.36 36.63 30.49 37.22C30.54 37.46 30.71 37.79 30.86 37.97C31.12 38.26 31.23 38.28 32.49 38.2C33.8 38.13 33.86 38.11 34.2 37.68C34.46 37.35 34.58 36.99 34.63 36.36C34.73 35.24 35.21 34.48 36.3 33.69L37.12 33.1L37.32 33.42C37.43 33.6 37.67 34.12 37.86 34.58C38.16 35.35 38.17 35.47 38.01 36.13C37.91 36.52 37.87 36.98 37.93 37.15C37.98 37.32 37.91 37.77 37.77 38.16L37.52 38.88L37.85 39.24C38.23 39.66 38.49 39.71 38.61 39.39C38.72 39.1 38.98 39.11 38.98 39.4C38.98 39.71 39.25 39.6 39.57 39.16C39.81 38.83 39.82 38.76 39.61 38.16C39.49 37.8 39.42 37.4 39.45 37.26C39.48 37.12 39.45 36.73 39.37 36.39C39.2 35.61 39.21 34.7 39.4 33.74C39.54 33.07 39.52 32.93 39.2 32.22C39.01 31.79 38.88 31.42 38.91 31.38C38.94 31.35 39.21 31.42 39.5 31.54C40.86 32.09 41.93 31.96 42.57 31.17L42.96 30.71L42.13 30.63C41.18 30.55 41.14 30.53 40.15 29.63C39.44 29 39.42 28.95 39.49 28.38C39.54 28.05 39.47 27.32 39.33 26.69C39.11 25.67 39.11 25.52 39.32 24.79C39.44 24.36 39.54 23.81 39.54 23.58C39.54 22.88 39.16 21.8 38.72 21.23C38.49 20.93 38.23 20.43 38.15 20.11C38.06 19.79 37.84 19.29 37.65 19.01C37.33 18.51 37.32 18.45 37.51 17.98C37.62 17.7 37.71 17.11 37.71 16.68C37.71 15.99 37.65 15.81 37.26 15.34C36.4 14.33 35.99 14.24 31.88 14.12C27.14 13.97 26.39 13.79 27.13 12.95C27.43 12.61 27.92 12.62 28.95 12.98C30.07 13.39 31.43 13.48 32.24 13.22C32.92 13 32.94 13.01 31.74 12.76C31.55 12.71 31.39 12.61 31.39 12.52C31.39 12.41 31.61 12.39 32.06 12.45C33.9 12.7 34.2 12.72 34.2 12.58C34.2 12.34 32.97 11.86 31.68 11.59C29.61 11.16 27.62 11.52 26.67 12.49C26.09 13.09 26.03 13.73 26.51 14.05C27.12 14.46 28.12 14.58 31.69 14.7C34.96 14.8 35.35 14.84 35.92 15.13C36.62 15.48 36.92 15.93 36.9 16.6C36.89 17.16 36.52 17.75 36.2 17.75C35.65 17.75 33.84 17.28 32.55 16.81C31.8 16.53 31.06 16.31 30.9 16.31C30.55 16.31 30.14 16.58 28.93 17.64C28.4 18.1 27.47 18.74 26.86 19.07C24.86 20.14 24.25 20.98 23.97 23.05C23.82 24.17 23.64 24.62 22.78 25.92C22.07 27 21.56 28.46 21.56 29.44C21.56 29.91 21.39 30.68 21.12 31.47C20.76 32.51 20.68 32.98 20.65 34.18C20.63 35.42 20.57 35.72 20.26 36.3C20.04 36.72 19.87 37.34 19.81 37.93C19.72 38.8 19.65 38.96 19.02 39.72C18.64 40.18 18.33 40.63 18.33 40.73C18.33 40.82 18.14 41.12 17.9 41.4C17.37 42.03 17.1 42.75 17.33 42.98C17.45 43.1 17.54 43.06 17.7 42.82C18.01 42.37 18.19 42.42 18.05 42.93C17.97 43.22 17.98 43.38 18.09 43.43C18.3 43.52 19.1 43.4 19.52 43.2ZM30.27 12.84C29.88 12.58 30.25 12.51 30.86 12.73L31.46 12.95L30.97 12.96C30.7 12.97 30.39 12.91 30.27 12.84ZM10 12.66C11.09 12.25 11.16 12.2 11.16 11.8C11.16 11.57 11.14 11.38 11.11 11.38C11.09 11.38 10.7 11.51 10.25 11.67C9.8 11.83 9.41 11.96 9.38 11.96C9.36 11.96 9.33 10.82 9.33 9.43C9.33 8.04 9.31 6.9 9.29 6.9C9.26 6.9 9.04 6.97 8.79 7.06L8.35 7.21L8.35 10.26C8.35 13.09 8.37 13.29 8.6 13.2C8.73 13.14 9.36 12.9 10 12.66L10 12.66ZM49.66 10.24L49.66 7.21L49.21 7.06C48.97 6.97 48.75 6.9 48.72 6.9C48.7 6.9 48.67 8.25 48.67 9.92L48.67 12.93L49.13 13.08C49.38 13.17 49.6 13.24 49.62 13.25C49.64 13.26 49.66 11.9 49.66 10.24ZM47.52 9.4L47.48 6.41L47.09 6.3L46.71 6.2L46.7 7.81C46.7 9.67 46.69 9.66 45.85 7.48C45.23 5.87 45.03 5.59 44.5 5.59L44.18 5.59L44.18 8.56C44.18 10.84 44.22 11.53 44.35 11.53C44.45 11.53 44.67 11.57 44.84 11.62C45.15 11.7 45.15 11.68 45.19 9.94L45.23 8.18L46 10.15C46.42 11.24 46.86 12.19 46.98 12.26C47.54 12.6 47.56 12.51 47.52 9.4ZM12.44 11.87C12.49 11.85 12.58 11.46 12.63 11.03C12.74 10.13 12.73 10.14 13.43 10.01L13.94 9.91L14.11 10.64C14.27 11.36 14.29 11.37 14.72 11.28C14.96 11.24 15.19 11.17 15.22 11.15C15.29 11.08 13.96 5.7 13.84 5.58C13.8 5.53 13.57 5.54 13.33 5.61C12.9 5.73 12.89 5.75 12.37 8.09C12.14 9.15 11.9 10.22 11.66 11.28L11.46 12.13L11.91 12.03C12.15 11.97 12.39 11.9 12.44 11.87ZM13.05 8.94C13.1 8.79 13.19 8.38 13.25 8.03L13.35 7.4L13.54 8.18C13.7 8.83 13.69 8.98 13.53 9.08C13.19 9.3 12.96 9.23 13.05 8.94L13.05 8.94ZM43.19 8.28C43.19 6.65 43.15 5.29 43.09 5.26C43.03 5.23 42.81 5.16 42.6 5.1L42.21 5.01L42.21 11.07L42.6 11.14C42.81 11.17 43.03 11.21 43.09 11.22C43.15 11.23 43.19 9.91 43.19 8.28ZM16.66 10.88C16.8 10.82 16.84 10.54 16.81 9.82C16.78 9.28 16.78 8.58 16.81 8.27C16.85 7.73 16.89 7.81 17.4 9.35L17.94 11L18.45 9.15L18.96 7.29L19 8.92C19.03 10.31 19.07 10.53 19.26 10.46C19.37 10.41 19.59 10.37 19.74 10.37C20 10.37 20.01 10.23 20.01 7.36L20.01 4.35L19.53 4.41C19.06 4.46 19.05 4.49 18.68 5.72C18.48 6.41 18.23 7.23 18.13 7.55L17.94 8.13L17.49 6.61C17.23 5.77 16.98 5.03 16.92 4.96C16.86 4.9 16.61 4.89 16.37 4.94L15.94 5.04L15.94 7.99C15.94 10.81 15.95 10.95 16.21 10.95C16.36 10.95 16.56 10.92 16.66 10.88ZM41.05 7.8L41.02 4.8L40.63 4.75L40.24 4.71L40.24 7.04L39.65 6.96C38.67 6.82 38.7 6.86 38.7 5.6C38.7 4.77 38.65 4.44 38.52 4.43C38.43 4.43 38.2 4.39 38.03 4.34L37.71 4.26L37.71 10.34L38.21 10.4L38.7 10.46L38.7 9.11C38.7 7.62 38.65 7.68 39.72 7.86L40.24 7.95L40.24 9.29C40.24 10.45 40.28 10.65 40.49 10.71C41.11 10.87 41.09 10.95 41.05 7.8L41.05 7.8ZM23.37 9.89C23.95 9.6 24.28 9 24.29 8.21C24.29 7.65 24.23 7.41 23.99 7.17C23.69 6.86 23.69 6.86 23.96 6.41C24.28 5.86 24.3 5.29 24.02 4.72C23.75 4.2 23.07 4 21.91 4.13L21.07 4.22L21.03 7.24L20.99 10.26L22.01 10.15C22.57 10.1 23.18 9.98 23.37 9.89ZM21.98 8.37C21.98 7.62 22.02 7.5 22.27 7.43C23.06 7.22 23.63 8.02 23.23 8.77C23.08 9.05 22.89 9.15 22.5 9.18L21.98 9.23L21.98 8.37ZM21.98 5.81L21.98 5.02L22.44 5.02C23 5.02 23.24 5.23 23.24 5.75C23.24 6.21 23.05 6.39 22.44 6.51L21.98 6.6L21.98 5.81ZM36.26 9.86C36.63 9.61 36.87 8.84 36.87 7.87C36.87 7.11 36.86 7.1 35.85 7L35.19 6.93L35.19 7.42C35.19 7.85 35.23 7.91 35.54 7.91C35.82 7.91 35.89 7.98 35.89 8.28C35.89 9.14 35.22 9.52 34.72 8.95C34.03 8.16 34.18 5.18 34.92 4.94C35.23 4.84 35.75 5.22 35.75 5.54C35.75 5.67 35.92 5.74 36.24 5.74C36.8 5.74 36.86 5.55 36.52 4.87C36.22 4.28 35.77 4 35.12 4C33.91 4 33.36 4.93 33.37 6.97C33.37 8.32 33.57 9.17 34 9.66C34.5 10.22 35.58 10.32 36.26 9.86L36.26 9.86ZM27.57 9.71C27.74 9.58 28.02 9.21 28.19 8.88C28.63 8.01 28.64 5.82 28.21 4.84C27.91 4.18 27.34 3.71 26.82 3.71C26.33 3.71 25.67 4.18 25.36 4.74C24.71 5.94 24.83 8.59 25.59 9.51C25.88 9.87 26.04 9.94 26.6 9.94C26.97 9.94 27.39 9.84 27.57 9.71ZM26.23 8.68C26.05 8.39 25.97 7.93 25.94 6.98C25.91 5.86 25.94 5.6 26.19 5.19C26.55 4.59 27.01 4.61 27.32 5.23C27.63 5.88 27.61 8.16 27.28 8.68C26.96 9.18 26.55 9.18 26.23 8.68ZM30.27 8.59C30.27 7.37 30.28 7.31 30.57 7.36C30.81 7.39 30.96 7.66 31.3 8.67L31.74 9.94L32.79 9.94L32.33 8.57L31.87 7.21L32.24 6.84C32.7 6.39 32.85 5.74 32.65 4.99C32.43 4.15 31.88 3.86 30.52 3.86L29.44 3.86L29.4 6.84C29.37 8.48 29.37 9.83 29.38 9.84C29.39 9.85 29.6 9.86 29.83 9.86L30.27 9.86L30.27 8.59L30.27 8.59ZM30.37 6.38C30.32 6.32 30.27 5.91 30.27 5.48L30.27 4.69L30.86 4.77C31.7 4.89 32.06 5.48 31.64 6.08C31.45 6.34 30.55 6.56 30.37 6.38ZM4.02 10.37C4.02 10.17 4.05 10.09 4.09 10.19C4.13 10.29 4.13 10.45 4.09 10.55C4.05 10.65 4.02 10.57 4.02 10.37L4.02 10.37ZM4.04 9.07C4.04 8.63 4.06 8.45 4.1 8.67C4.13 8.89 4.13 9.25 4.1 9.47C4.06 9.68 4.04 9.51 4.04 9.07L4.04 9.07Z" fill="#9F6B08" fill-opacity="1.000000" fill-rule="nonzero"/>
		<path id="Vector" d="M27.65 55.01C24.2 52.47 19.89 48.34 17.46 45.25C10.15 35.93 6.68 25.43 6.16 11.02C6.03 7.19 6.22 6.72 8.27 5.83C13.65 3.51 20.57 2.35 29 2.36C35.36 2.36 39.8 2.87 44.67 4.14C46.88 4.72 49.97 5.83 50.75 6.32C51.33 6.68 51.73 7.36 51.85 8.19C51.98 9.03 51.7 14.89 51.41 17.46C49.93 30.76 45.19 41.04 36.58 49.65C33.82 52.41 29.63 55.82 29 55.82C28.86 55.82 28.26 55.45 27.65 55.01ZM19.55 43.23C19.88 43.02 20.02 42.81 20.09 42.4C20.15 42.1 20.31 41.7 20.45 41.51C20.64 41.25 20.71 40.92 20.71 40.26C20.71 39.41 20.75 39.3 21.28 38.65C21.67 38.16 21.95 37.59 22.18 36.83C22.36 36.21 22.64 35.53 22.79 35.31C22.94 35.08 23.27 34.5 23.51 34C23.75 33.5 24 33.09 24.07 33.09C24.37 33.09 24.57 33.6 24.54 34.3C24.5 35.18 24.6 35.56 24.87 35.56C25.05 35.56 25.05 35.61 24.86 35.98C24.74 36.22 24.65 36.49 24.65 36.59C24.65 37.03 24.03 38.03 23.57 38.32C23.3 38.49 22.93 38.77 22.76 38.94C22.56 39.13 22.36 39.32 22.14 39.5C21.86 39.73 21.77 40.14 21.83 40.84C21.87 41.26 22.09 41.44 22.29 41.23C22.55 40.96 22.71 41.03 22.54 41.34C22.4 41.61 22.43 41.63 22.85 41.63C23.38 41.63 24.23 41.16 24.23 40.86C24.23 40.66 25.22 38.62 25.57 38.11C25.67 37.96 25.95 37.72 26.18 37.57C26.42 37.42 26.73 37.05 26.86 36.75C27.17 36.03 27.59 35.56 27.9 35.56C28.05 35.56 28.16 35.59 28.16 35.63C28.16 35.88 27.3 37.41 27.12 37.48C26.86 37.59 26.15 38.99 26.27 39.18C26.38 39.36 26.76 39.36 26.76 39.17C26.76 39.09 26.82 39.03 26.89 39.03C26.97 39.03 26.99 39.13 26.94 39.26C26.82 39.59 27.13 39.73 27.69 39.6C28.42 39.43 28.86 39.08 28.86 38.66C28.86 38.46 29 38.1 29.16 37.87C29.39 37.55 29.45 37.33 29.38 36.93C29.3 36.41 29.5 35.7 29.73 35.7C29.89 35.7 30.21 36.38 30.41 37.15C30.68 38.21 30.79 38.27 32.39 38.27C33.46 38.27 33.84 38.22 33.96 38.06C34.06 37.95 34.25 37.71 34.4 37.55C34.6 37.33 34.68 37 34.69 36.41C34.71 35.72 34.8 35.47 35.2 34.9C35.8 34.04 36.97 33.17 37.23 33.39C37.33 33.47 37.58 33.98 37.78 34.51C38.12 35.38 38.14 35.53 37.99 36.09C37.9 36.43 37.85 36.89 37.89 37.11C37.94 37.33 37.88 37.73 37.77 38C37.49 38.69 37.52 38.99 37.92 39.4C38.35 39.84 38.53 39.85 38.69 39.43L38.81 39.1L38.94 39.46L39.08 39.81L39.45 39.43C39.87 38.99 39.91 38.62 39.62 38.03C39.51 37.81 39.45 37.48 39.5 37.31C39.54 37.13 39.5 36.6 39.4 36.12C39.25 35.41 39.25 35.02 39.4 34.06C39.57 32.93 39.56 32.84 39.28 32.3C38.83 31.43 38.88 31.35 39.68 31.66C40.9 32.14 42.18 31.94 42.68 31.2C43.04 30.68 42.98 30.48 42.5 30.58C41.75 30.74 41.16 30.51 40.33 29.76L39.53 29.04L39.46 27.78C39.38 26.45 39.38 25.67 39.43 23.57C39.47 22.29 39.47 22.28 38.91 21.43C38.61 20.96 38.25 20.26 38.13 19.88C38 19.5 37.75 19.04 37.58 18.85C37.29 18.52 37.28 18.48 37.5 18.06C38.16 16.72 37.76 15.41 36.46 14.66L35.7 14.22L32.11 14.11C27.55 13.96 26.69 13.79 27.04 13.11C27.28 12.66 27.78 12.64 28.99 13.04C30.23 13.44 31.59 13.53 32.35 13.25C32.87 13.07 32.81 12.83 32.25 12.83C32.04 12.83 31.74 12.73 31.59 12.61C31.34 12.4 31.36 12.39 31.88 12.46C33.6 12.7 34.2 12.72 34.2 12.56C34.2 12.46 33.93 12.27 33.6 12.12C31.57 11.23 28.99 11.14 27.52 11.9C26.77 12.28 26.05 13.03 26.05 13.44C26.05 13.7 26.74 14.26 27.26 14.42C27.56 14.51 29.45 14.65 31.46 14.73C35.41 14.88 36.07 15 36.59 15.68C36.97 16.18 36.95 16.92 36.55 17.39L36.23 17.78L35.14 17.54C34.54 17.42 33.49 17.11 32.82 16.86C30.72 16.08 30.71 16.09 29.04 17.52C28.48 18.01 27.37 18.77 26.59 19.21C24.58 20.33 24.18 20.98 23.87 23.57C23.81 24.06 23.58 24.58 23.07 25.38C22 27.07 21.69 27.86 21.55 29.3C21.48 30.04 21.25 31.07 21 31.79C20.65 32.82 20.58 33.24 20.58 34.34C20.57 35.47 20.52 35.76 20.23 36.3C20.05 36.64 19.85 37.26 19.8 37.65C19.65 38.88 19.6 39 18.97 39.74C18.63 40.13 18.31 40.61 18.25 40.79C18.19 40.98 17.97 41.34 17.75 41.6C17.3 42.13 17.12 42.66 17.27 43.05C17.35 43.27 17.41 43.24 17.72 42.86L18.07 42.43L17.98 42.97L17.89 43.52L18.5 43.52C18.85 43.52 19.29 43.4 19.55 43.23ZM30.33 12.82C30.19 12.58 30.3 12.57 30.83 12.77L31.32 12.95L30.87 12.96C30.63 12.97 30.38 12.91 30.33 12.82ZM8.82 25.24C8.16 21.77 7.73 17.82 7.51 13.34C7.29 8.62 7.28 8.56 7.02 8.15C6.88 7.94 6.72 7.76 6.65 7.76C6.24 7.76 6.77 15.98 7.45 20.21C7.84 22.64 8.72 26.29 8.91 26.29C8.97 26.29 8.93 25.82 8.82 25.24ZM11.3 11.78C11.3 11.48 11.28 11.24 11.25 11.24C11.23 11.24 10.84 11.37 10.39 11.53C9.94 11.69 9.54 11.78 9.5 11.74C9.46 11.7 9.4 10.6 9.36 9.28C9.33 7.97 9.25 6.9 9.18 6.9C9.12 6.9 8.91 6.96 8.71 7.04L8.35 7.18L8.35 13.4L9.83 12.86L11.3 12.32L11.3 11.78ZM49.55 7.17C49.49 7.11 49.27 7.02 49.06 6.96L48.67 6.87L48.67 12.97L49.13 13.17L49.59 13.36L49.62 10.32C49.64 8.65 49.61 7.23 49.55 7.17L49.55 7.17ZM47.69 9.51C47.69 7.84 47.64 6.45 47.58 6.42C47.53 6.38 47.27 6.3 47.01 6.25L46.54 6.14L46.59 7.61C46.61 8.41 46.6 9.07 46.57 9.07C46.53 9.07 46.23 8.37 45.9 7.51C45.16 5.61 45.19 5.65 44.63 5.53L44.18 5.43L44.18 8.47C44.18 10.14 44.22 11.54 44.28 11.57C44.34 11.61 44.56 11.68 44.77 11.73L45.16 11.82L45.16 10.13C45.16 9.19 45.21 8.49 45.28 8.57C45.34 8.64 45.7 9.51 46.07 10.49C46.74 12.23 46.93 12.5 47.51 12.53C47.65 12.54 47.69 11.84 47.69 9.51L47.69 9.51ZM12.12 12.09C12.51 11.95 12.57 11.85 12.72 11.1C12.86 10.33 12.91 10.25 13.3 10.17C13.94 10.04 13.94 10.04 14.04 10.63C14.17 11.47 14.26 11.54 14.85 11.37C15.14 11.29 15.38 11.19 15.38 11.15C15.38 11.11 15.13 10.15 14.83 9.02C14.53 7.89 14.21 6.62 14.1 6.2C13.92 5.45 13.91 5.44 13.49 5.53C13.25 5.58 13.01 5.67 12.96 5.72C12.85 5.82 11.44 11.73 11.44 12.07C11.44 12.29 11.56 12.3 12.12 12.09L12.12 12.09ZM13.18 8.75C13.23 8.51 13.27 8.2 13.27 8.08C13.27 7.71 13.5 8.08 13.59 8.58C13.66 8.96 13.63 9.05 13.39 9.12C13.13 9.18 13.11 9.15 13.18 8.75ZM51.61 9.28C51.62 8.24 51.52 7.62 51.35 7.62C51.3 7.62 51.14 7.71 51 7.81C50.76 7.99 50.76 8.07 50.99 9.58C51.12 10.45 51.26 11.26 51.31 11.38C51.42 11.7 51.6 10.47 51.61 9.28L51.61 9.28ZM43.19 8.29L43.19 5.2L42.75 5.1C42.51 5.05 42.29 5.03 42.28 5.05C42.26 5.07 42.21 6.43 42.16 8.08L42.06 11.06L42.59 11.21C42.89 11.29 43.14 11.36 43.16 11.37C43.18 11.38 43.19 9.99 43.19 8.29ZM16.6 11C16.9 10.92 16.92 10.84 16.93 9.52L16.95 8.13L17.4 9.54C17.66 10.32 17.89 10.99 17.94 11.03C17.98 11.07 18.14 10.67 18.3 10.12C18.46 9.56 18.63 8.99 18.79 8.42L19 7.69L19.01 9.15L19.03 10.61L19.56 10.53L20.08 10.44L20.03 7.4C20 5.73 19.96 4.34 19.94 4.32C19.92 4.29 19.69 4.33 19.43 4.4C18.98 4.52 18.96 4.57 18.48 6.24L17.99 7.95L17.48 6.37C16.97 4.82 16.96 4.8 16.56 4.85C16.33 4.87 16.1 4.94 16.05 4.99C16 5.04 15.93 6.44 15.91 8.09C15.86 11.34 15.83 11.22 16.6 11ZM41.23 7.92C41.23 6.25 41.18 4.86 41.12 4.82C41.06 4.78 40.83 4.73 40.59 4.7L40.17 4.65L40.13 5.77C40.09 6.89 40.09 6.9 39.71 6.89C38.76 6.89 38.71 6.83 38.67 5.54L38.63 4.36L38.17 4.32L37.71 4.27L37.71 7.31C37.71 10.55 37.71 10.52 38.42 10.52C38.66 10.52 38.69 10.38 38.73 9.18L38.77 7.84L39.33 7.89C39.64 7.92 39.94 7.97 40 8C40.06 8.04 40.1 8.68 40.1 9.43L40.1 10.79L40.56 10.84C40.81 10.88 41.06 10.91 41.12 10.93C41.18 10.94 41.23 9.59 41.23 7.92ZM23.35 10C24.27 9.61 24.66 8.19 24.1 7.25C23.88 6.87 23.87 6.77 24.03 6.53C24.3 6.16 24.28 5.01 24 4.6C23.66 4.1 23.16 3.97 22.02 4.08L21 4.18L21 10.38L21.94 10.28C22.47 10.23 23.1 10.1 23.35 10ZM22.04 9.01C21.99 8.9 21.98 8.53 22 8.18C22.04 7.61 22.09 7.54 22.44 7.5C23 7.44 23.24 7.7 23.24 8.37C23.24 8.84 23.18 8.95 22.88 9.07C22.39 9.27 22.12 9.25 22.04 9.01L22.04 9.01ZM21.98 5.83C21.98 5.27 22.02 5.18 22.32 5.1C22.79 4.98 23.09 5.13 23.19 5.54C23.3 6.01 22.9 6.46 22.38 6.46C22 6.46 21.98 6.43 21.98 5.83ZM36.09 10.06C36.59 9.82 36.87 9.1 36.87 8.02L36.87 7.08L36.22 6.99C35.2 6.84 35.19 6.85 35.19 7.4C35.19 7.81 35.24 7.91 35.47 7.91C35.87 7.91 35.88 9 35.47 9.14C34.76 9.37 34.34 8.56 34.34 6.93C34.34 5.71 34.63 5.01 35.12 5.01C35.4 5.01 35.53 5.12 35.65 5.46C35.8 5.87 35.85 5.89 36.31 5.81C36.58 5.76 36.82 5.69 36.84 5.67C36.87 5.64 36.8 5.4 36.69 5.13C36.07 3.61 34.25 3.49 33.63 4.93C33.26 5.8 33.14 7.2 33.36 8.27C33.6 9.45 34.31 10.23 35.16 10.23C35.48 10.23 35.89 10.15 36.09 10.06L36.09 10.06ZM27.54 9.81C28.17 9.41 28.48 8.62 28.55 7.25C28.67 5.04 27.99 3.71 26.73 3.71C26.28 3.71 26.07 3.81 25.7 4.19C25.08 4.83 24.89 5.64 24.95 7.33C25 8.44 25.07 8.81 25.32 9.23C25.83 10.09 26.73 10.32 27.54 9.81ZM26.42 8.84C25.7 8.1 25.82 5.1 26.59 4.8C27.48 4.45 27.91 7.87 27.09 8.8C26.8 9.13 26.7 9.13 26.42 8.84ZM32.8 9.96C32.8 9.9 32.61 9.27 32.38 8.57L31.96 7.29L32.39 6.78C32.79 6.32 32.82 6.2 32.77 5.5C32.66 4.19 31.96 3.71 30.16 3.71L29.28 3.71L29.28 9.94L30.41 9.94L30.41 8.63C30.41 6.9 30.64 6.89 31.25 8.62C31.65 9.76 31.75 9.93 32.07 9.98C32.74 10.08 32.8 10.08 32.8 9.96ZM30.41 5.56L30.41 4.78L30.9 4.84C31.51 4.92 31.7 5.16 31.65 5.77C31.61 6.22 31.57 6.25 31.01 6.29L30.41 6.33L30.41 5.56ZM7.78 6.86C7.79 6.67 7.3 6.74 6.97 6.98L6.64 7.22L6.96 7.57L7.28 7.92L7.53 7.44C7.67 7.18 7.78 6.92 7.78 6.86L7.78 6.86Z" fill="#040404" fill-opacity="1.000000" fill-rule="nonzero"/>
		<path id="Vector" d="M26.89 54.32C17.01 46.66 10.91 37.26 8.07 25.37C6.93 20.58 6.24 14.67 6.24 9.7C6.24 6.99 6.43 6.69 8.74 5.75C16.15 2.72 27.15 1.65 37.86 2.92C43.27 3.57 50.13 5.58 51.21 6.85C51.64 7.36 51.75 7.66 51.45 7.55C51.35 7.51 51.13 7.6 50.95 7.74C50.63 7.99 50.63 8 50.83 9.22C50.94 9.89 51.08 11.14 51.14 12C51.19 12.85 51.28 13.55 51.34 13.55C51.53 13.55 51.62 12.52 51.65 10.08L51.68 7.69L51.73 9.65C51.83 13.32 51.3 18.77 50.43 23.19C48.8 31.43 45.64 38.54 40.86 44.75C37.84 48.66 30.22 55.67 28.98 55.67C28.77 55.67 27.97 55.15 26.89 54.32L26.89 54.32ZM30.28 54.5C32.11 53.28 33.91 51.72 35.98 49.57C38.81 46.61 40.45 44.63 41.02 43.5C41.2 43.16 41.19 43.09 40.94 42.86C40.68 42.61 40.61 42.66 38.74 44.57C36.39 46.96 34.76 48.31 34.76 47.88C34.76 47.62 32.95 46.56 31.86 46.18C29.92 45.51 27.82 45.57 26.1 46.35L25.36 46.68L25.13 45.86C24.47 43.54 24.1 40.46 24.45 40.22C24.54 40.16 24.78 39.71 25 39.21C25.28 38.57 25.6 38.12 26.12 37.66C26.56 37.27 26.9 36.84 26.98 36.56C27.11 36.08 27.73 35.48 28 35.57C28.23 35.66 27.72 36.69 27.08 37.45C26.78 37.82 26.44 38.33 26.34 38.58C26.18 38.99 26.18 39.08 26.38 39.28C26.59 39.5 26.61 39.49 26.71 39.24C26.8 38.98 26.82 38.99 26.9 39.32C27 39.79 27.42 39.85 28.2 39.49C28.75 39.24 28.83 39.14 28.91 38.63C28.96 38.31 29.1 37.97 29.22 37.86C29.37 37.73 29.43 37.48 29.41 37.08C29.37 36.47 29.53 35.7 29.69 35.7C29.86 35.7 30.24 36.48 30.34 37.04C30.4 37.34 30.56 37.75 30.72 37.94C30.98 38.29 31.06 38.31 32.44 38.31L33.89 38.31L34.29 37.77C34.6 37.35 34.69 37.06 34.71 36.47C34.74 35.44 35.25 34.57 36.27 33.82L37.07 33.23L37.3 33.54C37.43 33.71 37.66 34.24 37.83 34.71C38.06 35.37 38.1 35.65 37.98 35.95C37.91 36.16 37.82 36.73 37.79 37.21C37.76 37.69 37.69 38.32 37.64 38.61C37.56 39.06 37.6 39.17 37.93 39.44C38.41 39.83 38.54 39.83 38.69 39.43C38.79 39.19 38.82 39.17 38.83 39.35C38.84 39.76 39.12 39.8 39.49 39.44C39.79 39.15 39.83 39.02 39.76 38.52C39.71 38.2 39.62 37.52 39.56 37C39.49 36.48 39.39 35.94 39.33 35.8C39.27 35.66 39.31 34.94 39.4 34.21C39.57 32.94 39.57 32.85 39.28 32.27C38.87 31.43 38.9 31.31 39.42 31.59C40.03 31.91 41.39 32.02 41.93 31.79C42.39 31.6 42.91 31.01 42.91 30.69C42.91 30.55 42.74 30.52 42.25 30.58C41.69 30.65 41.5 30.6 41.14 30.32C40.8 30.06 40.46 29.8 40.11 29.55C39.56 29.14 39.54 29.08 39.61 28.52C39.66 28.18 39.59 27.47 39.46 26.87C39.33 26.29 39.27 25.62 39.31 25.37C39.36 25.12 39.46 24.6 39.54 24.22C39.73 23.26 39.5 22.28 38.84 21.26C38.55 20.8 38.23 20.17 38.13 19.85C38.04 19.53 37.83 19.09 37.68 18.87C37.42 18.49 37.42 18.44 37.65 17.73C38.1 16.33 37.64 15.2 36.35 14.55C35.72 14.24 35.44 14.21 32.24 14.11C29.15 14.02 27.55 13.86 27.17 13.62C26.91 13.45 27.04 12.97 27.4 12.8C27.7 12.66 27.95 12.7 28.98 13.05C30.28 13.5 31.66 13.59 32.42 13.28C32.92 13.08 32.81 12.89 32.11 12.78C31.8 12.73 31.51 12.62 31.46 12.54C31.34 12.34 31.64 12.36 32.72 12.62C33.59 12.82 34.34 12.79 34.34 12.54C34.34 12.38 33.16 11.88 32.14 11.61C31 11.31 28.96 11.31 28.04 11.62C27.18 11.91 26.26 12.67 26.13 13.21C26.01 13.69 26.41 14.16 27.15 14.41C27.44 14.51 29.38 14.67 31.6 14.77C35.78 14.97 36.16 15.04 36.65 15.76C36.97 16.23 36.93 16.95 36.55 17.4C36.23 17.78 36.21 17.79 35.46 17.62C35.04 17.52 33.87 17.17 32.86 16.83C31.44 16.35 30.94 16.24 30.61 16.33C30.39 16.4 29.72 16.87 29.14 17.39C28.56 17.91 27.48 18.66 26.72 19.07C24.78 20.13 24.19 20.94 23.95 22.89C23.81 23.98 23.58 24.55 22.6 26.14C21.93 27.23 21.56 28.34 21.56 29.2C21.56 29.64 21.37 30.51 21.07 31.44C20.65 32.72 20.57 33.15 20.57 34.24C20.57 35.33 20.52 35.64 20.22 36.23C20.03 36.61 19.84 37.26 19.79 37.65C19.66 38.85 19.63 38.92 18.89 39.82C18.5 40.29 18.19 40.8 18.19 40.94C18.19 41.08 18.12 41.2 18.05 41.2C17.81 41.2 17.2 42.26 17.2 42.67C17.2 43.22 17.47 43.33 17.78 42.92L18.04 42.57L17.96 43.05C17.88 43.45 17.91 43.52 18.16 43.52C18.36 43.52 18.57 43.73 18.84 44.2C20.32 46.89 23.6 50.83 26.05 52.87C27.29 53.9 28.99 55.09 29.22 55.09C29.31 55.09 29.79 54.83 30.28 54.5L30.28 54.5ZM20.71 41.14C20.79 40.93 20.84 40.44 20.83 40.05C20.82 39.46 20.89 39.24 21.24 38.78C21.77 38.08 22.05 37.53 22.26 36.72C22.44 36.02 23.9 33.09 24.07 33.09C24.36 33.09 24.51 33.53 24.51 34.42C24.51 35.15 24.56 35.43 24.73 35.52C25.08 35.73 24.57 37.2 23.92 37.86C23.07 38.71 22.64 39.09 22.23 39.35C21.95 39.53 21.82 39.76 21.75 40.18C21.7 40.5 21.61 40.77 21.55 40.77C21.49 40.77 21.24 40.93 21 41.14L20.57 41.52L20.71 41.14ZM30.41 12.83C30.23 12.71 30.25 12.69 30.48 12.7C30.63 12.7 30.89 12.76 31.04 12.83C31.3 12.94 31.29 12.96 30.97 12.96C30.78 12.97 30.52 12.91 30.41 12.83ZM10.51 31.25C10.25 30.39 9.75 28.52 9.41 27.09C8.23 22.18 7.83 18.87 7.43 10.49C7.36 9.07 7.28 8.56 7.08 8.21C6.76 7.68 6.53 7.63 6.51 8.09C6.34 14.03 7.29 21.59 8.91 27.11C9.61 29.5 10.76 32.8 10.89 32.8C10.94 32.8 10.77 32.1 10.51 31.25ZM14.88 22.75C17.62 22.01 20.17 19.84 21.36 17.25C21.51 16.93 21.63 16.63 21.64 16.59C21.64 16.55 21.77 16.13 21.91 15.65C22.11 15.01 22.18 14.34 22.18 13.05C22.19 11.1 22.09 10.52 21.73 10.5C21.6 10.49 21.85 10.42 22.29 10.36C23.82 10.13 24.37 9.56 24.37 8.22C24.37 7.73 24.28 7.4 24.1 7.17C23.85 6.85 23.84 6.81 24.06 6.56C24.22 6.38 24.3 6.04 24.3 5.57C24.3 4.94 24.24 4.79 23.84 4.42C23.35 3.98 22.73 3.89 21.52 4.09L21 4.18L21 6.11C21 7.16 20.96 8.13 20.91 8.26C20.86 8.39 20.67 8.49 20.49 8.49L20.15 8.49L20.15 6.39C20.15 4.31 20.15 4.29 19.84 4.29C19.02 4.3 18.96 4.38 18.46 6.14L17.99 7.82L17.49 6.27L17 4.72L16.5 4.82C16.23 4.87 15.96 4.94 15.9 4.97C15.84 5 15.8 5.93 15.8 7.03L15.8 9.04L15.43 9.13C15.22 9.18 15.01 9.18 14.95 9.11C14.9 9.05 14.66 8.22 14.42 7.28C14.18 6.33 13.96 5.53 13.92 5.49C13.89 5.46 13.64 5.47 13.36 5.53L12.86 5.62L12.5 7.24C11.83 10.16 11.96 9.88 11.12 10.08C10.72 10.18 10.18 10.35 9.93 10.45L9.47 10.64L9.47 8.68C9.47 6.95 9.45 6.73 9.25 6.81C9.13 6.86 8.87 6.94 8.68 6.99L8.34 7.08L8.39 10.35C8.45 13.96 8.63 15.27 9.53 18.64C10.22 21.21 10.84 22.81 11.21 22.97C11.63 23.16 13.87 23.03 14.88 22.75ZM13.18 8.84C13.23 8.71 13.27 8.47 13.27 8.3C13.27 7.91 13.48 8.14 13.6 8.67C13.68 9.01 13.65 9.07 13.4 9.07C13.18 9.07 13.12 9 13.18 8.84L13.18 8.84ZM22.12 8.36C22.12 7.76 22.16 7.64 22.42 7.57C22.91 7.44 23.24 7.71 23.24 8.25C23.24 8.83 23.03 9.07 22.51 9.07C22.14 9.07 22.12 9.04 22.12 8.36ZM17.01 8.83C16.96 8.77 16.92 8.63 16.93 8.5C16.93 8.31 16.96 8.32 17.08 8.54C17.23 8.8 17.19 9 17.01 8.83L17.01 8.83ZM18.91 8.34C18.91 8.14 18.94 8.06 18.98 8.16C19.02 8.26 19.02 8.42 18.98 8.52C18.94 8.62 18.91 8.54 18.91 8.34ZM22.12 5.81C22.12 5.16 22.12 5.16 22.61 5.16C23.1 5.16 23.18 5.27 23.11 5.88C23.08 6.16 22.7 6.46 22.37 6.46C22.17 6.46 22.12 6.34 22.12 5.81L22.12 5.81ZM49.23 18.92C49.62 17.91 50.22 14.23 50.21 12.87C50.21 12.35 50.11 11.82 49.94 11.46C49.71 10.98 49.67 10.55 49.66 8.98L49.66 7.09L49.17 6.94L48.68 6.78L48.64 8.54C48.6 10.2 48.59 10.3 48.32 10.25C47.69 10.16 47.69 10.16 47.69 8.22L47.69 6.35L47.25 6.26C47.01 6.21 46.76 6.17 46.69 6.17C46.62 6.17 46.56 6.81 46.56 7.58L46.56 9L45.91 7.4C45.56 6.53 45.23 5.77 45.18 5.72C45.13 5.67 44.89 5.58 44.63 5.52L44.18 5.43L44.18 7.32C44.18 9.2 44.17 9.21 43.85 9.21C43.27 9.21 43.19 8.98 43.19 7.03C43.19 5.25 43.18 5.19 42.88 5.11C42.06 4.88 42.07 4.84 42.07 6.99L42.07 8.96L41.75 8.87C41.58 8.82 41.39 8.78 41.33 8.78C41.27 8.78 41.23 7.87 41.23 6.77L41.23 4.76L40.79 4.67C40.55 4.62 40.29 4.58 40.23 4.58C40.16 4.58 40.1 5.1 40.1 5.74C40.1 6.99 40.11 6.98 39.28 6.81L38.85 6.72L38.81 5.54L38.77 4.36L38.24 4.32L37.71 4.27L37.71 10.48L38.21 10.54C38.48 10.58 38.74 10.57 38.77 10.53C38.81 10.5 38.84 9.89 38.84 9.19C38.84 7.81 38.82 7.83 39.66 8L40.1 8.09L40.11 9.19C40.12 10.42 40.32 13.18 40.43 13.63C40.97 15.87 42.71 17.94 44.76 18.77C45.84 19.21 46.48 19.32 47.86 19.3C49.03 19.29 49.09 19.27 49.23 18.92ZM45.38 9.47C45.23 8.97 45.2 8.64 45.3 8.7C45.49 8.83 45.73 9.65 45.57 9.65C45.5 9.65 45.41 9.56 45.38 9.47ZM36.27 10C36.73 9.69 36.87 9.22 36.87 8.06C36.87 6.96 36.81 6.9 35.71 6.9C35.19 6.9 35.19 6.9 35.19 7.47C35.19 7.96 35.23 8.05 35.47 8.05C35.68 8.05 35.75 8.15 35.75 8.47C35.75 9.08 35.42 9.31 34.98 9.01C34.53 8.71 34.41 8.25 34.41 6.89C34.41 5.23 35.04 4.46 35.58 5.45C35.78 5.83 35.89 5.89 36.31 5.85C36.75 5.81 36.8 5.77 36.77 5.41C36.71 4.47 35.61 3.68 34.68 3.92C34.13 4.06 33.56 4.76 33.38 5.51C33.03 6.91 33.29 8.86 33.93 9.7C34.44 10.36 35.53 10.5 36.27 10ZM27.71 9.72C28.3 9.21 28.6 8.33 28.62 7.04C28.66 4.92 28.01 3.71 26.83 3.71C25.58 3.71 24.86 4.91 24.86 6.97C24.86 8.31 25.18 9.34 25.73 9.79C26.26 10.21 27.18 10.18 27.71 9.72L27.71 9.72ZM26.32 8.68C26.19 8.53 26.11 7.97 26.08 7.06C26.04 5.52 26.2 4.97 26.73 4.9C27.24 4.82 27.5 5.67 27.43 7.21C27.37 8.5 27.21 8.92 26.76 8.92C26.62 8.92 26.42 8.81 26.32 8.68ZM30.38 8.74C30.43 7.05 30.66 7.06 31.26 8.78L31.71 10.08L32.32 10.08C32.66 10.08 32.94 10.06 32.93 10.04C32.93 10.02 32.72 9.4 32.47 8.65L32 7.3L32.4 6.89C32.73 6.55 32.8 6.36 32.8 5.76C32.8 4.26 32.31 3.83 30.51 3.74L29.28 3.68L29.28 6.79C29.28 10.12 29.28 10.09 29.99 10.04C30.33 10.01 30.34 9.98 30.38 8.74ZM30.41 5.59C30.41 4.87 30.41 4.87 30.87 4.87C31.43 4.87 31.67 5.09 31.67 5.59C31.67 6.1 31.43 6.32 30.87 6.32C30.41 6.32 30.41 6.32 30.41 5.59ZM7.51 7.72C7.51 7.62 7.67 7.3 7.86 7C8.15 6.57 8.18 6.46 8 6.46C7.76 6.46 6.66 7 6.66 7.12C6.66 7.16 6.8 7.39 6.97 7.62C7.26 8.03 7.51 8.07 7.51 7.72L7.51 7.72ZM15.69 4.37C21.57 3.39 27.4 3.08 33.57 3.43C36.09 3.57 40.37 4 42.07 4.28C42.81 4.4 43.05 4.38 42.89 4.21C42.76 4.09 39.47 3.46 37.71 3.22C34.43 2.78 31.83 2.66 27.12 2.74C22.21 2.82 20.14 3 16.92 3.65C14.54 4.13 12.53 4.72 13.31 4.72C13.44 4.72 14.51 4.56 15.69 4.37Z" fill="#040404" fill-opacity="1.000000" fill-rule="nonzero"/>
	</g>
</svg>
