<svg width="50.000000" height="50.000000" viewBox="0 0 50 50" fill="none" xmlns="http://www.w3.org/2000/svg" xmlns:xlink="http://www.w3.org/1999/xlink">
	<desc>
			Created with Pixso.
	</desc>
	<defs>
		<clipPath id="clip33_304">
			<rect id="arcticons:youtube-studio" width="50.000000" height="50.000000" fill="white" fill-opacity="0"/>
		</clipPath>
	</defs>
	<rect id="arcticons:youtube-studio" width="50.000000" height="50.000000" fill="#FFFFFF" fill-opacity="0"/>
	<g clip-path="url(#clip33_304)">
		<path id="Vector" d="M43.45 35.64L24.98 46.3L6.5 35.64L6.5 14.31L24.98 3.64L43.45 14.31L43.45 35.64Z" fill="#FFFFFF" fill-opacity="1.000000" fill-rule="nonzero"/>
		<path id="Vector" d="M24.98 46.3L6.5 35.64L6.5 14.31L24.98 3.64L43.45 14.31L43.45 35.64L24.98 46.3Z" stroke="#9F6B08" stroke-opacity="1.000000" stroke-width="1.000000" stroke-linejoin="round"/>
		<path id="Vector" d="M36.72 31.77L25 38.54L13.27 31.77L13.27 18.22L25 11.45L36.72 18.22L36.72 31.77Z" fill="#FFFFFF" fill-opacity="1.000000" fill-rule="nonzero"/>
		<path id="Vector" d="M25 38.54L13.27 31.77L13.27 18.22L25 11.45L36.72 18.22L36.72 31.77L25 38.54Z" stroke="#9F6B08" stroke-opacity="1.000000" stroke-width="1.000000" stroke-linejoin="round"/>
		<path id="Vector" d="M21.62 30.23L30.47 25.01L21.61 19.76L21.62 30.23Z" fill="#9F6B08" fill-opacity="1.000000" fill-rule="nonzero"/>
		<path id="Vector" d="M30.47 25.01L21.61 19.76L21.62 30.23L30.47 25.01Z" stroke="#FFFFFF" stroke-opacity="1.000000" stroke-width="1.000000" stroke-linejoin="round"/>
	</g>
</svg>
